SplineFontDB: 3.2
FontName: Kepler452b-Regular
FullName: Kepler-452b Regular
FamilyName: Kepler452b-Regular
Weight: Medium
Copyright: Created by WeirdoOnTheBus with FontForge 2.0 (http://fontforge.sf.net)
UComments: "2017-3-8: Created."
Version: 003.000
ItalicAngle: 0
UnderlinePosition: 0
UnderlineWidth: 0
Ascent: 1536
Descent: 512
InvalidEm: 0
LayerCount: 2
Layer: 0 0 "Back" 1
Layer: 1 0 "Fore" 0
XUID: [1021 693 1088386991 4852375]
StyleMap: 0x0000
FSType: 0
OS2Version: 0
OS2_WeightWidthSlopeOnly: 0
OS2_UseTypoMetrics: 1
CreationTime: 1489043219
ModificationTime: 1641415841
PfmFamily: 17
TTFWeight: 500
TTFWidth: 5
LineGap: 184
VLineGap: 0
OS2TypoAscent: 0
OS2TypoAOffset: 1
OS2TypoDescent: 0
OS2TypoDOffset: 1
OS2TypoLinegap: 184
OS2WinAscent: 0
OS2WinAOffset: 1
OS2WinDescent: 0
OS2WinDOffset: 1
HheadAscent: 0
HheadAOffset: 1
HheadDescent: 0
HheadDOffset: 1
OS2Vendor: 'PfEd'
Lookup: 4 0 1 "'liga' Standard Ligatures in Latin lookup 0" { "'liga' Standard Ligatures in Latin lookup 0-1"  } ['liga' ('DFLT' <'dflt' > 'latn' <'dflt' > ) ]
Lookup: 258 0 0 "'kern' Horizontal Kerning in Latin lookup 0" { "Light Kerning" [307,30,4] "'kern' Horizontal Kerning in Latin lookup 0-1" [307,30,4] } ['kern' ('DFLT' <'dflt' > 'latn' <'dflt' > ) ]
MarkAttachClasses: 1
DEI: 91125
KernClass2: 53 47 "'kern' Horizontal Kerning in Latin lookup 0-1"
 57 a agrave aacute acircumflex atilde adieresis aring ae x_a
 1 B
 1 b
 1 C
 1 c
 5 D Eth
 1 E
 37 e egrave eacute ecircumflex edieresis
 1 F
 17 f t_f x_f f_f k_f
 1 G
 1 g
 1 h
 45 I Igrave Iacute Icircumflex Idieresis S_I T_I
 1 i
 35 igrave iacute icircumflex idieresis
 30 J S_J T_J V_J v_J Y_J Yacute_J
 1 j
 1 K
 1 k
 1 L
 1 m
 1 n
 1 o
 1 P
 1 p
 1 Q
 1 q
 1 R
 1 r
 1 S
 1 s
 30 T S_T T_T V_T v_T Y_T Yacute_T
 25 plus t t_t x_t x_plus k_t
 1 u
 35 ugrave uacute ucircumflex udieresis
 3 V v
 1 w
 26 X multiply S_X T_X V_X v_X
 21 x Q_x r_x X_x Z_x z_x
 42 Y Yacute S_Y T_Y V_Y v_Y V_Yacute v_Yacute

StartChar: A
Encoding: 65 65 0
Width: 1280
VWidth: 0
Flags: HMW
LayerCount: 2
Fore
SplineSet
1088 960 m 1
 237 960 l 1
 1088 109 l 1
 1088 960 l 1
128 1024 m 1
 1152 1024 l 1
 1152 0 l 1
 1107 0 l 1
 192 915 l 1
 192 0 l 1
 128 0 l 1
 128 1024 l 1
EndSplineSet
Validated: 1
EndChar

StartChar: C
Encoding: 67 67 1
Width: 1280
VWidth: 0
Flags: MW
LayerCount: 2
Fore
SplineSet
608 1024 m 13
 1152 1024 l 5
 1152 960 l 5
 627 960 l 5
 192 525 l 5
 192 64 l 5
 1152 64 l 5
 1152 0 l 29
 128 0 l 21
 128 544 l 5
 608 1024 l 13
EndSplineSet
Validated: 1
EndChar

StartChar: E
Encoding: 69 69 2
Width: 1280
VWidth: 0
Flags: MW
LayerCount: 2
Fore
SplineSet
128 1024 m 29
 1152 1024 l 29
 1152 960 l 29
 192 960 l 29
 192 544 l 29
 672 544 l 29
 672 480 l 29
 192 480 l 29
 192 64 l 29
 1152 64 l 29
 1152 0 l 29
 128 0 l 29
 128 1024 l 29
EndSplineSet
Validated: 1
EndChar

StartChar: F
Encoding: 70 70 3
Width: 1280
VWidth: 0
Flags: MW
LayerCount: 2
Fore
SplineSet
128 1024 m 25
 1152 1024 l 25
 1152 960 l 25
 192 960 l 25
 192 544 l 1
 672 544 l 1
 672 480 l 1
 192 480 l 1
 192 0 l 25
 128 0 l 25
 128 1024 l 25
EndSplineSet
Validated: 1
EndChar

StartChar: H
Encoding: 72 72 4
Width: 1280
VWidth: 0
Flags: MW
LayerCount: 2
Fore
SplineSet
128 1024 m 25
 192 1024 l 25
 192 544 l 25
 1088 544 l 25
 1088 1024 l 25
 1152 1024 l 25
 1152 0 l 25
 1088 0 l 25
 1088 480 l 25
 192 480 l 25
 192 0 l 25
 128 0 l 25
 128 1024 l 25
EndSplineSet
Validated: 1
EndChar

StartChar: I
Encoding: 73 73 5
Width: 1280
VWidth: 0
Flags: MW
LayerCount: 2
Fore
SplineSet
128 1024 m 29
 1152 1024 l 29
 1152 960 l 29
 672 960 l 29
 672 64 l 29
 1152 64 l 29
 1152 0 l 29
 128 0 l 29
 128 64 l 29
 608 64 l 29
 608 960 l 29
 128 960 l 29
 128 1024 l 29
EndSplineSet
Validated: 1
EndChar

StartChar: L
Encoding: 76 76 6
Width: 1280
VWidth: 0
Flags: MW
LayerCount: 2
Fore
SplineSet
128 1024 m 25
 192 1024 l 25
 192 64 l 25
 1152 64 l 25
 1152 0 l 25
 128 0 l 25
 128 1024 l 25
EndSplineSet
Validated: 1
EndChar

StartChar: O
Encoding: 79 79 7
Width: 1280
VWidth: 0
Flags: MW
LayerCount: 2
Fore
SplineSet
1088 960 m 29
 192 960 l 29
 192 64 l 29
 1088 64 l 29
 1088 960 l 29
128 1024 m 29
 1152 1024 l 29
 1152 0 l 29
 128 0 l 29
 128 1024 l 29
EndSplineSet
Validated: 1
EndChar

StartChar: P
Encoding: 80 80 8
Width: 1280
VWidth: 0
Flags: MW
LayerCount: 2
Fore
SplineSet
1088 960 m 29
 192 960 l 29
 192 544 l 29
 1088 544 l 29
 1088 960 l 29
128 1024 m 29
 1152 1024 l 29
 1152 480 l 29
 192 480 l 29
 192 0 l 29
 128 0 l 29
 128 1024 l 29
EndSplineSet
Validated: 1
EndChar

StartChar: T
Encoding: 84 84 9
Width: 1280
VWidth: 0
Flags: MW
LayerCount: 2
Fore
SplineSet
128 1024 m 25
 1152 1024 l 25
 1152 960 l 25
 672 960 l 25
 672 0 l 25
 608 0 l 25
 608 960 l 25
 128 960 l 25
 128 1024 l 25
EndSplineSet
Validated: 1
EndChar

StartChar: B
Encoding: 66 66 10
Width: 1280
VWidth: 0
Flags: MW
LayerCount: 2
Fore
SplineSet
653 960 m 1
 192 960 l 1
 192 544 l 1
 1069 544 l 1
 653 960 l 1
1088 480 m 25
 192 480 l 1
 192 64 l 1
 1088 64 l 25
 1088 480 l 25
128 1024 m 1
 672 1024 l 25
 1152 544 l 1
 1152 0 l 25
 128 0 l 1
 128 1024 l 1
EndSplineSet
Validated: 1
EndChar

StartChar: D
Encoding: 68 68 11
Width: 1280
VWidth: 0
Flags: MW
LayerCount: 2
Fore
SplineSet
653 960 m 5
 192 960 l 5
 192 64 l 5
 1088 64 l 5
 1088 525 l 5
 653 960 l 5
128 1024 m 5
 672 1024 l 5
 1152 544 l 5
 1152 0 l 5
 128 0 l 29
 128 1024 l 5
EndSplineSet
Validated: 1
EndChar

StartChar: G
Encoding: 71 71 12
Width: 1280
VWidth: 0
Flags: MW
LayerCount: 2
Fore
SplineSet
128 1024 m 25
 1152 1024 l 25
 1152 960 l 25
 192 960 l 25
 192 64 l 1
 653 64 l 1
 1069 480 l 1
 608 480 l 1
 608 544 l 1
 1152 544 l 1
 1152 480 l 1
 672 0 l 1
 128 0 l 1
 128 1024 l 25
EndSplineSet
Validated: 1
EndChar

StartChar: J
Encoding: 74 74 13
Width: 1280
VWidth: 0
Flags: MW
LayerCount: 2
Fore
SplineSet
608 461 m 1
 211 64 l 1
 608 64 l 1
 608 461 l 1
128 1024 m 25
 1152 1024 l 25
 1152 960 l 25
 672 960 l 25
 672 0 l 25
 128 0 l 1
 128 64 l 1
 608 544 l 1
 608 960 l 1
 128 960 l 25
 128 1024 l 25
EndSplineSet
Validated: 1
EndChar

StartChar: N
Encoding: 78 78 14
Width: 1280
VWidth: 0
Flags: MW
LayerCount: 2
Fore
SplineSet
173 1024 m 5
 1088 109 l 5
 1088 1024 l 5
 1152 1024 l 29
 1152 0 l 5
 1107 0 l 5
 192 915 l 5
 192 0 l 5
 128 0 l 29
 128 1024 l 5
 173 1024 l 5
EndSplineSet
Validated: 1
EndChar

StartChar: Q
Encoding: 81 81 15
Width: 1280
VWidth: 0
Flags: MW
LayerCount: 2
Fore
SplineSet
1088 960 m 1
 192 960 l 25
 192 64 l 1
 653 64 l 1
 845 263 l 1
 608 500 l 1
 653 544 l 1
 893 304 l 1
 1088 499 l 1
 1088 960 l 1
128 1024 m 25
 1152 1024 l 1
 1152 480 l 1
 935 263 l 1
 1152 45 l 1
 1107 0 l 1
 889 218 l 1
 672 0 l 1
 128 0 l 25
 128 1024 l 25
EndSplineSet
Validated: 1
EndChar

StartChar: S
Encoding: 83 83 16
Width: 1280
VWidth: 0
Flags: MW
LayerCount: 2
Fore
SplineSet
128 1024 m 25
 1152 1024 l 25
 1152 960 l 25
 192 960 l 25
 192 544 l 25
 1152 544 l 25
 1152 480 l 1
 672 0 l 25
 128 0 l 1
 128 64 l 1
 653 64 l 5
 1069 480 l 1
 128 480 l 1
 128 1024 l 25
EndSplineSet
Validated: 1
EndChar

StartChar: U
Encoding: 85 85 17
Width: 1280
VWidth: 0
Flags: MW
LayerCount: 2
Fore
SplineSet
128 1024 m 5
 192 1024 l 5
 192 499 l 5
 627 64 l 5
 1088 64 l 5
 1088 1024 l 29
 1152 1024 l 29
 1152 0 l 5
 608 0 l 5
 128 480 l 5
 128 1024 l 5
EndSplineSet
Validated: 1
EndChar

StartChar: Z
Encoding: 90 90 18
Width: 1280
VWidth: 0
Flags: MW
LayerCount: 2
Fore
SplineSet
128 1024 m 25
 1152 1024 l 25
 1152 979 l 1
 237 64 l 29
 1152 64 l 1
 1152 0 l 25
 128 0 l 25
 128 45 l 1
 1043 960 l 25
 128 960 l 1
 128 1024 l 25
EndSplineSet
Validated: 1
EndChar

StartChar: V
Encoding: 86 86 19
Width: 1280
VWidth: 0
Flags: MW
LayerCount: 2
Fore
SplineSet
128 1024 m 5
 192 1024 l 5
 192 109 l 5
 1107 1024 l 5
 1152 979 l 5
 173 0 l 5
 128 0 l 5
 128 1024 l 5
EndSplineSet
Validated: 1
EndChar

StartChar: M
Encoding: 77 77 20
Width: 1280
VWidth: 0
Flags: MW
LayerCount: 2
Fore
SplineSet
595 512 m 1
 192 915 l 1
 192 109 l 1
 595 512 l 1
128 1024 m 1
 173 1024 l 1
 640 557 l 5
 1107 1024 l 1
 1152 1024 l 1
 1152 0 l 25
 1088 0 l 1
 1088 915 l 1
 173 0 l 1
 128 0 l 1
 128 1024 l 1
EndSplineSet
Validated: 1
EndChar

StartChar: W
Encoding: 87 87 21
Width: 1280
VWidth: 0
Flags: MW
LayerCount: 2
Fore
SplineSet
595 512 m 5
 192 915 l 1
 192 109 l 1
 595 512 l 5
128 1024 m 1
 173 1024 l 1
 1088 109 l 1
 1088 1026 l 1
 1152 1026 l 25
 1152 0 l 1
 1107 0 l 1
 640 467 l 1
 173 0 l 1
 128 0 l 1
 128 1024 l 1
EndSplineSet
Validated: 1
EndChar

StartChar: X
Encoding: 88 88 22
Width: 1280
VWidth: 0
Flags: MW
LayerCount: 2
Fore
SplineSet
128 979 m 5
 173 1024 l 5
 640 557 l 5
 1107 1024 l 5
 1152 979 l 5
 685 512 l 5
 1152 45 l 5
 1107 0 l 5
 640 467 l 5
 173 0 l 5
 128 45 l 5
 595 512 l 5
 128 979 l 5
EndSplineSet
Validated: 1
EndChar

StartChar: Y
Encoding: 89 89 23
Width: 1280
VWidth: 0
Flags: MW
LayerCount: 2
Fore
SplineSet
128 979 m 5
 173 1024 l 5
 640 557 l 5
 1107 1024 l 5
 1152 979 l 5
 672 499 l 5
 672 0 l 5
 608 0 l 5
 608 499 l 5
 128 979 l 5
EndSplineSet
Validated: 1
EndChar

StartChar: ampersand
Encoding: 38 38 24
Width: 1280
VWidth: 0
Flags: MW
LayerCount: 2
Fore
SplineSet
845 263 m 1
 634 484 l 1
 432 280 l 1
 432 64 l 1
 646 64 l 1
 845 263 l 1
912 1024 m 1
 912 896 l 1
 848 896 l 1
 848 960 l 1
 432 960 l 1
 432 784 l 1
 1152 45 l 1
 1107 0 l 1
 890 218 l 1
 672 0 l 1
 368 0 l 5
 368 304 l 1
 591 527 l 1
 147 979 l 1
 192 1024 l 1
 368 848 l 1
 368 1024 l 1
 912 1024 l 1
EndSplineSet
Validated: 1
EndChar

StartChar: zero
Encoding: 48 48 25
Width: 1280
VWidth: 0
Flags: MW
LayerCount: 2
Fore
SplineSet
1088 915 m 1
 237 64 l 1
 1088 64 l 1
 1088 915 l 1
1043 960 m 1
 192 960 l 1
 192 109 l 1
 1043 960 l 1
128 1024 m 25
 1152 1024 l 25
 1152 0 l 25
 128 0 l 25
 128 1024 l 25
EndSplineSet
Validated: 1
EndChar

StartChar: one
Encoding: 49 49 26
Width: 1280
VWidth: 0
Flags: MW
LayerCount: 2
Fore
SplineSet
128 1024 m 1
 672 1024 l 1
 672 64 l 1
 1152 64 l 1
 1152 0 l 1
 128 0 l 1
 128 64 l 1
 608 64 l 1
 608 960 l 1
 128 960 l 1
 128 1024 l 1
EndSplineSet
Validated: 1
EndChar

StartChar: two
Encoding: 50 50 27
Width: 1280
VWidth: 0
Flags: MW
LayerCount: 2
Fore
SplineSet
128 1027 m 1
 672 1024 l 1
 1152 544 l 1
 1152 480 l 1
 192 480 l 1
 192 64 l 1
 1152 64 l 1
 1152 0 l 1
 128 0 l 1
 128 544 l 1
 1070 544 l 1
 654 960 l 1
 128 960 l 1
 128 1027 l 1
EndSplineSet
Validated: 1
EndChar

StartChar: three
Encoding: 51 51 28
Width: 1280
VWidth: 0
Flags: MW
LayerCount: 2
Fore
SplineSet
128 1024 m 1
 1152 1024 l 1
 1152 0 l 1
 128 0 l 1
 128 64 l 1
 1088 64 l 1
 1088 480 l 1
 608 480 l 1
 608 544 l 1
 1088 544 l 1
 1088 960 l 1
 128 960 l 1
 128 1024 l 1
EndSplineSet
Validated: 1
EndChar

StartChar: five
Encoding: 53 53 29
Width: 1280
VWidth: 0
Flags: MW
LayerCount: 2
Fore
SplineSet
128 1024 m 5
 1152 1024 l 5
 1152 960 l 5
 192 960 l 5
 192 544 l 5
 1152 544 l 5
 1152 0 l 5
 128 0 l 5
 128 64 l 5
 1088 64 l 5
 1088 480 l 5
 128 480 l 5
 128 1024 l 5
EndSplineSet
Validated: 1
EndChar

StartChar: six
Encoding: 54 54 30
Width: 1280
VWidth: 0
Flags: MW
LayerCount: 2
Fore
SplineSet
1088 480 m 1
 192 480 l 1
 192 64 l 1
 1088 64 l 1
 1088 480 l 1
608 1024 m 1
 1152 1024 l 1
 1152 960 l 1
 627 960 l 1
 211 544 l 1
 1152 544 l 1
 1152 0 l 1
 128 0 l 1
 128 544 l 1
 608 1024 l 1
EndSplineSet
Validated: 1
EndChar

StartChar: eight
Encoding: 56 56 31
Width: 1280
VWidth: 0
Flags: MW
LayerCount: 2
Fore
SplineSet
1088 480 m 25
 192 480 l 1
 192 64 l 1
 1088 64 l 29
 1088 480 l 25
1088 960 m 1
 192 960 l 1
 192 544 l 1
 1088 544 l 1
 1088 960 l 1
128 1024 m 1
 1152 1024 l 1
 1152 0 l 1
 128 0 l 1
 128 1024 l 1
EndSplineSet
Validated: 1
EndChar

StartChar: nine
Encoding: 57 57 32
Width: 1280
VWidth: 0
Flags: MW
LayerCount: 2
Fore
SplineSet
1088 960 m 25
 192 960 l 25
 192 544 l 25
 1088 544 l 25
 1088 960 l 25
128 1024 m 25
 1152 1024 l 25
 1152 480 l 25
 672 0 l 25
 128 0 l 1
 128 64 l 1
 653 64 l 1
 1069 480 l 1
 128 480 l 1
 128 1024 l 25
EndSplineSet
Validated: 1
EndChar

StartChar: seven
Encoding: 55 55 33
Width: 1280
VWidth: 0
Flags: HMW
LayerCount: 2
Fore
SplineSet
128 1024 m 1
 1152 1024 l 1
 1152 960 l 1
 192 0 l 1
 147 45 l 1
 1062 960 l 5
 128 960 l 1
 128 1024 l 1
EndSplineSet
Validated: 1
EndChar

StartChar: less
Encoding: 60 60 34
Width: 800
VWidth: 0
Flags: HMW
LayerCount: 2
Fore
SplineSet
627 1024 m 1
 672 979 l 1
 205 512 l 1
 672 45 l 1
 627 0 l 1
 115 512 l 1
 627 1024 l 1
EndSplineSet
Validated: 1
EndChar

StartChar: greater
Encoding: 62 62 35
Width: 800
VWidth: 0
Flags: HMW
LayerCount: 2
Fore
SplineSet
128 979 m 1
 173 1024 l 1
 685 512 l 1
 173 0 l 1
 128 45 l 1
 595 512 l 1
 128 979 l 1
EndSplineSet
Validated: 1
EndChar

StartChar: question
Encoding: 63 63 36
Width: 1280
VWidth: 0
InSpiro: 1
Flags: HMW
LayerCount: 2
Fore
SplineSet
627 1024 m 1
 1152 1024 l 1
 1151 480 l 1
 672 480 l 1
 672 240 l 1
 608 240 l 1
 608 544 l 1
 1088 544 l 1
 1088 960 l 1
 653 960 l 1
 173 480 l 1
 128 525 l 1
 627 1024 l 1
  Spiro
    626.996 1024 v
    1152 1024 v
    1151.34 479.809 v
    672 480 v
    672 240 v
    607.957 239.8 v
    608 544 v
    1088 544 v
    1088 960 v
    653 960 v
    173 480 v
    128 525 v
    0 0 z
  EndSpiro
608 0 m 1
 608 128 l 1
 672 128 l 1
 672 0 l 1
 608 0 l 1
  Spiro
    607.957 0 v
    607.996 128 v
    672 128 v
    672 0.277 v
    0 0 z
  EndSpiro
EndSplineSet
Validated: 1
EndChar

StartChar: R
Encoding: 82 82 37
Width: 1280
VWidth: 0
Flags: MW
LayerCount: 2
Fore
SplineSet
1088 960 m 25
 192 960 l 25
 192 544 l 25
 1088 544 l 25
 1088 960 l 25
128 1024 m 25
 1152 1024 l 25
 1152 480 l 1
 237 480 l 1
 1152 -435 l 1
 1107 -480 l 1
 192 435 l 1
 192 0 l 1
 128 0 l 25
 128 1024 l 25
EndSplineSet
Validated: 1
EndChar

StartChar: K
Encoding: 75 75 38
Width: 1280
VWidth: 0
Flags: MW
LayerCount: 2
Fore
SplineSet
128 1024 m 25
 192 1024 l 1
 192 589 l 1
 1107 1504 l 1
 1152 1459 l 1
 237 544 l 1
 1152 544 l 1
 1152 0 l 1
 1088 0 l 1
 1088 480 l 1
 192 480 l 1
 192 0 l 1
 128 0 l 25
 128 1024 l 25
EndSplineSet
Validated: 1
EndChar

StartChar: backslash
Encoding: 92 92 39
Width: 1280
VWidth: 0
Flags: MW
LayerCount: 2
Fore
SplineSet
128 979 m 1
 173 1024 l 1
 1152 45 l 1
 1107 0 l 5
 128 979 l 1
EndSplineSet
Validated: 1
EndChar

StartChar: bracketleft
Encoding: 91 91 40
Width: 560
VWidth: 0
Flags: HMW
LayerCount: 2
Fore
SplineSet
128 1024 m 25
 432 1024 l 25
 432 960 l 25
 192 960 l 25
 192 64 l 25
 432 64 l 25
 432 0 l 25
 128 0 l 25
 128 1024 l 25
EndSplineSet
Validated: 1
EndChar

StartChar: bracketright
Encoding: 93 93 41
Width: 560
VWidth: 0
Flags: HMW
LayerCount: 2
Fore
SplineSet
128 1024 m 25
 432 1024 l 25
 432 0 l 25
 128 0 l 25
 128 64 l 25
 368 64 l 25
 368 960 l 25
 128 960 l 25
 128 1024 l 25
EndSplineSet
Validated: 1
EndChar

StartChar: plus
Encoding: 43 43 42
Width: 1280
VWidth: 0
Flags: MW
LayerCount: 2
Fore
SplineSet
608 1027 m 25
 672 1027 l 25
 672 544 l 25
 1152 544 l 25
 1152 480 l 25
 672 480 l 25
 672 0 l 25
 608 0 l 25
 608 480 l 25
 128 480 l 25
 128 544 l 25
 608 544 l 25
 608 1027 l 25
EndSplineSet
Validated: 1
EndChar

StartChar: exclam
Encoding: 33 33 43
Width: 320
VWidth: 0
Flags: HMW
LayerCount: 2
Fore
SplineSet
128 1024 m 25
 192 1024 l 25
 192 240 l 25
 128 240 l 25
 128 1024 l 25
128 128 m 25
 192 128 l 25
 192 0 l 25
 128 0 l 25
 128 128 l 25
EndSplineSet
Validated: 1
EndChar

StartChar: numbersign
Encoding: 35 35 44
Width: 1280
VWidth: 0
Flags: HMW
LayerCount: 2
Fore
SplineSet
848 720 m 1
 432 720 l 1
 432 304 l 1
 848 304 l 1
 848 720 l 1
368 1024 m 1
 432 1024 l 1
 432 784 l 1
 848 784 l 1
 848 1024 l 1
 912 1024 l 1
 912 784 l 1
 1152 784 l 1
 1152 720 l 1
 912 720 l 1
 912 304 l 1
 1152 304 l 1
 1152 240 l 1
 912 240 l 1
 912 0 l 1
 848 0 l 1
 848 240 l 1
 432 240 l 1
 432 0 l 1
 368 0 l 1
 368 240 l 1
 128 240 l 1
 128 304 l 1
 368 304 l 1
 368 720 l 1
 128 720 l 5
 128 784 l 5
 368 784 l 1
 368 1024 l 1
EndSplineSet
Validated: 1
EndChar

StartChar: slash
Encoding: 47 47 45
Width: 1280
VWidth: 0
Flags: MW
LayerCount: 2
Fore
SplineSet
1107 1024 m 5
 1152 979 l 5
 173 0 l 5
 128 45 l 5
 1107 1024 l 5
EndSplineSet
Validated: 1
EndChar

StartChar: hyphen
Encoding: 45 45 46
Width: 800
VWidth: 0
Flags: HMW
LayerCount: 2
Fore
SplineSet
672 544 m 29
 672 480 l 29
 128 480 l 29
 128 544 l 29
 672 544 l 29
EndSplineSet
Validated: 1
EndChar

StartChar: dollar
Encoding: 36 36 47
Width: 1280
VWidth: 0
Flags: MW
LayerCount: 2
Fore
SplineSet
1088 480 m 1
 672 480 l 1
 672 304 l 1
 1088 304 l 1
 1088 480 l 1
608 720 m 25
 192 720 l 25
 192 544 l 25
 608 544 l 25
 608 720 l 25
128 784 m 1
 608 784 l 1
 608 1024 l 1
 672 1024 l 1
 672 784 l 1
 1152 784 l 1
 1152 720 l 1
 672 720 l 1
 672 544 l 1
 1152 544 l 1
 1152 240 l 1
 672 240 l 1
 672 0 l 1
 608 0 l 1
 608 240 l 1
 128 240 l 1
 128 304 l 1
 608 304 l 1
 608 480 l 1
 128 480 l 1
 128 784 l 1
EndSplineSet
Validated: 1
EndChar

StartChar: four
Encoding: 52 52 48
Width: 1280
VWidth: 0
Flags: MW
LayerCount: 2
Fore
SplineSet
608 941 m 1
 211 544 l 1
 608 544 l 1
 608 941 l 1
608 1024 m 1
 672 1024 l 1
 672 544 l 1
 1152 544 l 1
 1152 480 l 1
 672 480 l 1
 672 0 l 1
 608 0 l 1
 608 480 l 1
 128 480 l 1
 128 544 l 1
 608 1024 l 1
EndSplineSet
Validated: 1
EndChar

StartChar: underscore
Encoding: 95 95 49
Width: 1280
VWidth: 0
Flags: MW
LayerCount: 2
Fore
SplineSet
128 64 m 29
 1152 64 l 29
 1152 0 l 29
 128 0 l 29
 128 64 l 29
EndSplineSet
Validated: 1
EndChar

StartChar: period
Encoding: 46 46 50
Width: 320
VWidth: 0
Flags: HMW
LayerCount: 2
Fore
SplineSet
128 0 m 5
 128 130 l 5
 192 130 l 5
 192 0 l 5
 128 0 l 5
EndSplineSet
Validated: 1
EndChar

StartChar: equal
Encoding: 61 61 51
Width: 1280
VWidth: 0
Flags: MW
LayerCount: 2
Fore
SplineSet
128 304 m 1
 1152 304 l 1
 1152 240 l 1
 128 240 l 1
 128 304 l 1
128 784 m 1
 1152 784 l 1
 1152 720 l 1
 128 720 l 1
 128 784 l 1
EndSplineSet
Validated: 1
EndChar

StartChar: colon
Encoding: 58 58 52
Width: 320
VWidth: 0
Flags: HMW
LayerCount: 2
Fore
SplineSet
128 848 m 25
 192 848 l 25
 192 720 l 25
 128 720 l 25
 128 848 l 25
128 304 m 25
 192 304 l 25
 192 176 l 25
 128 176 l 25
 128 304 l 25
EndSplineSet
Validated: 1
EndChar

StartChar: asciicircum
Encoding: 94 94 53
Width: 1280
VWidth: 0
Flags: MW
LayerCount: 2
Fore
SplineSet
128 525 m 1
 640 1037 l 5
 1152 525 l 1
 1107 480 l 1
 640 947 l 1
 173 480 l 1
 128 525 l 1
EndSplineSet
Validated: 1
EndChar

StartChar: percent
Encoding: 37 37 54
Width: 1280
VWidth: 0
Flags: MW
LayerCount: 2
Fore
SplineSet
1107 1024 m 5
 1152 979 l 5
 173 0 l 5
 128 45 l 5
 1107 1024 l 5
1088 64 m 5
 1088 240 l 5
 912 240 l 5
 912 64 l 5
 1088 64 l 5
368 960 m 5
 192 960 l 5
 192 784 l 5
 368 784 l 5
 368 960 l 5
128 1024 m 5
 432 1024 l 5
 432 720 l 5
 128 720 l 5
 128 1024 l 5
848 303 m 5
 1152 304 l 5
 1152 0 l 5
 848 0 l 5
 848 303 l 5
EndSplineSet
Validated: 1
EndChar

StartChar: i
Encoding: 105 105 55
Width: 320
VWidth: 0
Flags: HMW
LayerCount: 2
Fore
SplineSet
128 1024 m 25
 192 1024 l 25
 192 896 l 25
 128 896 l 25
 128 1024 l 25
128 784 m 25
 192 784 l 25
 192 0 l 25
 128 0 l 25
 128 784 l 25
EndSplineSet
Validated: 1
EndChar

StartChar: j
Encoding: 106 106 56
Width: 800
VWidth: 0
Flags: HMW
LayerCount: 2
Fore
SplineSet
608 461 m 1
 211 64 l 1
 608 64 l 1
 608 461 l 1
672 816 m 25
 672 0 l 25
 128 0 l 1
 128 64 l 1
 608 544 l 1
 608 816 l 25
 672 816 l 25
608 1024 m 25
 672 1024 l 25
 672 896 l 25
 608 896 l 25
 608 1024 l 25
EndSplineSet
Validated: 1
EndChar

StartChar: h
Encoding: 104 104 57
Width: 1280
VWidth: 0
Flags: MW
LayerCount: 2
Fore
SplineSet
128 1024 m 25
 192 1024 l 25
 192 544 l 25
 1152 544 l 25
 1152 0 l 25
 1088 0 l 25
 1088 480 l 29
 192 480 l 29
 192 0 l 25
 128 0 l 25
 128 1024 l 25
EndSplineSet
Validated: 1
EndChar

StartChar: l
Encoding: 108 108 58
Width: 320
VWidth: 0
Flags: HMW
LayerCount: 2
Fore
SplineSet
128 1024 m 25
 192 1024 l 25
 192 0 l 25
 128 0 l 25
 128 1024 l 25
EndSplineSet
Validated: 1
EndChar

StartChar: t
Encoding: 116 116 59
Width: 1280
VWidth: 0
Flags: MW
LayerCount: 2
Fore
SplineSet
608 1024 m 29
 672 1024 l 29
 672 544 l 25
 1152 544 l 25
 1152 480 l 25
 672 480 l 25
 672 0 l 25
 608 0 l 25
 608 480 l 25
 128 480 l 25
 128 544 l 25
 608 544 l 25
 608 1024 l 29
EndSplineSet
Validated: 1
EndChar

StartChar: bar
Encoding: 124 124 60
Width: 320
VWidth: 0
Flags: HMW
LayerCount: 2
Fore
SplineSet
128 1504 m 25
 192 1504 l 25
 192 -480 l 25
 128 -480 l 25
 128 1504 l 25
EndSplineSet
Validated: 1
EndChar

StartChar: asciitilde
Encoding: 126 126 61
Width: 1280
VWidth: 0
InSpiro: 1
Flags: HMW
LayerCount: 2
Fore
SplineSet
128 525 m 1
 400 797 l 1
 880 317 l 1
 1107 544 l 1
 1152 499 l 1
 880 227 l 1
 400 707 l 1
 173 480 l 1
 128 525 l 1
  Spiro
    128 525 v
    400 797 v
    880 317 v
    1107 544 v
    1152 499 v
    880 227 v
    400 707 v
    173 480 v
    0 0 z
  EndSpiro
EndSplineSet
Validated: 1
EndChar

StartChar: g
Encoding: 103 103 62
Width: 1280
VWidth: 0
Flags: HMW
LayerCount: 2
Fore
SplineSet
1088 480 m 25
 192 480 l 25
 192 64 l 25
 1088 64 l 25
 1088 480 l 25
128 544 m 25
 1152 544 l 1
 1152 0 l 1
 672 -480 l 1
 128 -480 l 1
 128 -416 l 1
 653 -416 l 5
 1069 0 l 5
 128 0 l 1
 128 544 l 25
EndSplineSet
Validated: 1
EndChar

StartChar: o
Encoding: 111 111 63
Width: 1280
VWidth: 0
Flags: MW
LayerCount: 2
Fore
SplineSet
1088 480 m 29
 192 480 l 29
 192 64 l 29
 1088 64 l 29
 1088 480 l 29
128 0 m 29
 128 544 l 29
 1152 544 l 29
 1152 0 l 29
 128 0 l 29
EndSplineSet
Validated: 1
EndChar

StartChar: p
Encoding: 112 112 64
Width: 1280
VWidth: 0
Flags: MW
LayerCount: 2
Fore
SplineSet
1088 480 m 25
 192 480 l 25
 192 64 l 25
 1088 64 l 25
 1088 480 l 25
128 544 m 25
 1152 544 l 25
 1152 0 l 25
 192 0 l 25
 192 -480 l 29
 128 -480 l 29
 128 544 l 25
EndSplineSet
Validated: 1
EndChar

StartChar: q
Encoding: 113 113 65
Width: 1280
VWidth: 0
Flags: MW
LayerCount: 2
Fore
SplineSet
1088 480 m 25
 192 480 l 25
 192 64 l 25
 1088 64 l 25
 1088 480 l 25
128 0 m 1
 128 544 l 25
 1152 544 l 25
 1152 -480 l 5
 1088 -480 l 5
 1088 0 l 1
 128 0 l 1
EndSplineSet
Validated: 1
EndChar

StartChar: u
Encoding: 117 117 66
Width: 1280
VWidth: 0
Flags: MW
LayerCount: 2
Fore
SplineSet
128 544 m 29
 192 544 l 29
 192 64 l 29
 1088 64 l 29
 1088 544 l 29
 1152 544 l 29
 1152 0 l 29
 128 0 l 29
 128 544 l 29
EndSplineSet
Validated: 1
EndChar

StartChar: a
Encoding: 97 97 67
Width: 1280
VWidth: 0
Flags: MW
LayerCount: 2
Fore
SplineSet
1088 240 m 5
 192 240 l 5
 192 64 l 5
 1088 64 l 5
 1088 240 l 5
128 544 m 29
 1152 544 l 29
 1152 0 l 29
 128 0 l 29
 128 304 l 29
 1088 304 l 29
 1088 480 l 29
 128 480 l 29
 128 544 l 29
EndSplineSet
Validated: 1
EndChar

StartChar: m
Encoding: 109 109 68
Width: 1280
VWidth: 0
Flags: MW
LayerCount: 2
Fore
SplineSet
128 0 m 29
 128 544 l 29
 1152 544 l 29
 1152 0 l 29
 1088 0 l 29
 1088 480 l 29
 672 480 l 29
 674 0 l 29
 608 0 l 29
 608 480 l 29
 192 480 l 29
 192 0 l 29
 128 0 l 29
EndSplineSet
Validated: 1
EndChar

StartChar: n
Encoding: 110 110 69
Width: 1280
VWidth: 0
Flags: MW
LayerCount: 2
Fore
SplineSet
128 0 m 29
 128 544 l 29
 1152 544 l 29
 1152 0 l 29
 1088 0 l 29
 1088 480 l 29
 192 480 l 29
 192 0 l 29
 128 0 l 29
EndSplineSet
Validated: 1
EndChar

StartChar: r
Encoding: 114 114 70
Width: 1280
VWidth: 0
Flags: MW
LayerCount: 2
Fore
SplineSet
128 0 m 25
 128 544 l 25
 1152 544 l 25
 1152 480 l 25
 192 480 l 25
 192 0 l 25
 128 0 l 25
EndSplineSet
Validated: 1
EndChar

StartChar: b
Encoding: 98 98 71
Width: 1280
VWidth: 0
Flags: MW
LayerCount: 2
Fore
SplineSet
1088 480 m 25
 192 480 l 25
 192 64 l 25
 1088 64 l 25
 1088 480 l 25
128 1024 m 25
 192 1024 l 25
 192 544 l 25
 1152 544 l 25
 1152 0 l 25
 128 0 l 25
 128 1024 l 25
EndSplineSet
Validated: 1
EndChar

StartChar: c
Encoding: 99 99 72
Width: 1280
VWidth: 0
Flags: MW
LayerCount: 2
Fore
SplineSet
128 544 m 29
 1152 544 l 29
 1152 480 l 29
 192 480 l 29
 192 64 l 29
 1152 64 l 29
 1152 0 l 29
 128 0 l 29
 128 544 l 29
EndSplineSet
Validated: 1
EndChar

StartChar: d
Encoding: 100 100 73
Width: 1280
VWidth: 0
Flags: MW
LayerCount: 2
Fore
SplineSet
1088 480 m 29
 192 480 l 29
 192 64 l 29
 1088 64 l 29
 1088 480 l 29
128 544 m 29
 1088 544 l 29
 1088 1024 l 29
 1152 1024 l 29
 1152 0 l 29
 128 0 l 29
 128 544 l 29
EndSplineSet
Validated: 1
EndChar

StartChar: e
Encoding: 101 101 74
Width: 1280
VWidth: 0
Flags: MW
LayerCount: 2
Fore
SplineSet
1088 480 m 5
 387 480 l 5
 211 304 l 5
 1088 304 l 5
 1088 480 l 5
368 544 m 5
 1152 544 l 5
 1152 240 l 29
 192 240 l 29
 192 64 l 29
 1152 64 l 29
 1152 0 l 29
 128 0 l 5
 128 304 l 5
 368 544 l 5
EndSplineSet
Validated: 1
EndChar

StartChar: f
Encoding: 102 102 75
Width: 1280
VWidth: 0
Flags: MW
LayerCount: 2
Fore
SplineSet
608 0 m 25
 608 480 l 25
 128 480 l 25
 128 544 l 25
 608 544 l 25
 608 1024 l 25
 1152 1024 l 25
 1152 960 l 25
 672 960 l 25
 672 544 l 25
 1152 544 l 25
 1152 480 l 25
 672 480 l 25
 672 0 l 25
 608 0 l 25
EndSplineSet
Validated: 1
EndChar

StartChar: s
Encoding: 115 115 76
Width: 1280
VWidth: 0
Flags: MW
LayerCount: 2
Fore
SplineSet
128 544 m 25
 1152 544 l 25
 1152 480 l 25
 192 480 l 25
 192 304 l 25
 1152 304 l 25
 1152 0 l 25
 128 0 l 25
 128 64 l 25
 1088 64 l 25
 1088 240 l 25
 128 240 l 25
 128 544 l 25
EndSplineSet
Validated: 1
EndChar

StartChar: at
Encoding: 64 64 77
Width: 1280
VWidth: 0
Flags: HMW
LayerCount: 2
Fore
SplineSet
1088 720 m 25
 432 720 l 1
 432 304 l 25
 1088 304 l 1
 1088 720 l 25
1152 240 m 25
 368 240 l 25
 368 784 l 25
 1088 784 l 25
 1088 960 l 1
 192 960 l 1
 192 64 l 1
 1152 64 l 9
 1152 0 l 1
 128 0 l 1
 128 1024 l 1
 1152 1024 l 1
 1152 240 l 25
EndSplineSet
Validated: 1
EndChar

StartChar: v
Encoding: 118 118 78
Width: 1280
VWidth: 0
Flags: HMW
LayerCount: 2
Fore
SplineSet
128 544 m 5
 192 544 l 5
 192 109 l 1
 1107 1024 l 1
 1152 979 l 1
 173 0 l 1
 128 0 l 1
 128 544 l 5
EndSplineSet
Validated: 1
EndChar

StartChar: y
Encoding: 121 121 79
Width: 1280
VWidth: 0
Flags: HMW
LayerCount: 2
Fore
SplineSet
128 499 m 5
 173 544 l 5
 640 77 l 5
 1107 544 l 5
 1152 499 l 5
 173 -480 l 5
 128 -435 l 5
 595 32 l 5
 128 499 l 5
EndSplineSet
Validated: 1
EndChar

StartChar: z
Encoding: 122 122 80
Width: 1280
VWidth: 0
Flags: HMW
LayerCount: 2
Fore
SplineSet
128 544 m 25
 672 544 l 25
 672 499 l 1
 237 64 l 25
 1152 64 l 1
 1152 0 l 25
 128 0 l 1
 128 45 l 1
 563 480 l 5
 128 480 l 1
 128 544 l 25
EndSplineSet
Validated: 1
EndChar

StartChar: k
Encoding: 107 107 81
Width: 1280
VWidth: 0
InSpiro: 1
Flags: MW
LayerCount: 2
Fore
SplineSet
128 1024 m 1
 192 1024 l 1
 192 544 l 1
 1152 544 l 1
 1152 480 l 1
 237 480 l 1
 1152 -435 l 1
 1107 -480 l 1
 192 435 l 1
 192 0 l 1
 128 0 l 1
 128 1024 l 1
  Spiro
    128 1024 v
    192 1024 v
    192 544 v
    1152 544 v
    1152 480 v
    237 480 v
    1152 -435 v
    1107 -480 v
    192 435 v
    192 0 v
    128 0 v
    0 0 z
  EndSpiro
EndSplineSet
Validated: 1
EndChar

StartChar: w
Encoding: 119 119 82
Width: 1280
VWidth: 0
Flags: MW
LayerCount: 2
Fore
SplineSet
381 272 m 1
 192 461 l 1
 192 83 l 1
 381 272 l 1
128 544 m 1
 192 544 l 1
 672 64 l 1
 1088 64 l 1
 1088 544 l 1
 1152 544 l 25
 1152 0 l 1
 654 0 l 1
 423 231 l 1
 192 0 l 1
 128 0 l 1
 128 544 l 1
EndSplineSet
Validated: 1
EndChar

StartChar: x
Encoding: 120 120 83
Width: 1280
VWidth: 0
Flags: HMW
LayerCount: 2
Fore
SplineSet
368 499 m 1
 413 544 l 1
 640 317 l 1
 867 544 l 1
 1152 544 l 1
 1152 480 l 1
 893 480 l 1
 685 272 l 1
 912 45 l 1
 867 0 l 1
 640 227 l 1
 413 0 l 1
 128 0 l 1
 128 64 l 1
 387 64 l 1
 595 272 l 1
 368 499 l 1
EndSplineSet
Validated: 1
EndChar

StartChar: comma
Encoding: 44 44 85
Width: 608
VWidth: 0
Flags: HMW
LayerCount: 2
Fore
SplineSet
387 68 m 5
 432 19 l 5
 173 -240 l 5
 128 -195 l 5
 387 68 l 5
EndSplineSet
Validated: 1
EndChar

StartChar: quotesingle
Encoding: 39 39 86
Width: 560
VWidth: 0
Flags: HMW
LayerCount: 2
Fore
SplineSet
173 1024 m 5
 432 765 l 5
 387 720 l 5
 128 979 l 5
 173 1024 l 5
EndSplineSet
Validated: 1
EndChar

StartChar: grave
Encoding: 96 96 87
Width: 560
VWidth: 0
Flags: HMW
LayerCount: 2
Fore
SplineSet
173 1024 m 5
 432 765 l 5
 387 720 l 5
 128 979 l 5
 173 1024 l 5
EndSplineSet
Validated: 1
EndChar

StartChar: semicolon
Encoding: 59 59 88
Width: 560
VWidth: 0
Flags: HMW
LayerCount: 2
Fore
SplineSet
387 68 m 5
 432 19 l 5
 173 -240 l 5
 128 -195 l 5
 387 68 l 5
368 848 m 25
 432 848 l 25
 432 720 l 25
 368 720 l 25
 368 848 l 25
EndSplineSet
Validated: 1
EndChar

StartChar: exclamdown
Encoding: 161 161 89
Width: 320
VWidth: 0
Flags: HMW
LayerCount: 2
Fore
SplineSet
128 784 m 25
 192 784 l 25
 192 656 l 25
 128 656 l 25
 128 784 l 25
128 544 m 25
 192 544 l 25
 192 -240 l 25
 128 -240 l 25
 128 544 l 25
EndSplineSet
Validated: 1
EndChar

StartChar: quotedbl
Encoding: 34 34 90
Width: 800
VWidth: 0
Flags: HMW
LayerCount: 2
Fore
SplineSet
413 1024 m 5
 672 765 l 5
 625 720 l 5
 368 979 l 5
 413 1024 l 5
173 1024 m 5
 432 765 l 5
 385 720 l 5
 128 979 l 5
 173 1024 l 5
EndSplineSet
Validated: 1
EndChar

StartChar: parenright
Encoding: 41 41 91
Width: 560
VWidth: 0
Flags: HMW
LayerCount: 2
Fore
SplineSet
192 1264 m 1
 432 1024 l 1
 432 0 l 1
 192 -240 l 1
 144 -192 l 1
 368 32 l 1
 368 992 l 1
 144 1216 l 1
 192 1264 l 1
EndSplineSet
Validated: 1
EndChar

StartChar: parenleft
Encoding: 40 40 92
Width: 560
VWidth: 0
Flags: HMW
LayerCount: 2
Fore
SplineSet
368 1264 m 1
 415 1217 l 1
 192 994 l 1
 192 32 l 1
 416 -192 l 1
 368 -240 l 1
 128 0 l 1
 128 1024 l 1
 368 1264 l 1
EndSplineSet
Validated: 1
EndChar

StartChar: braceleft
Encoding: 123 123 93
Width: 800
VWidth: 0
Flags: HMW
LayerCount: 2
Fore
SplineSet
672 1024 m 1
 672 960 l 1
 432 960 l 1
 432 720 l 1
 224 512 l 1
 432 304 l 1
 432 64 l 1
 672 64 l 1
 672 0 l 1
 368 0 l 1
 368 272 l 1
 128 512 l 1
 368 748 l 1
 368 1024 l 1
 672 1024 l 1
EndSplineSet
Validated: 1
EndChar

StartChar: braceright
Encoding: 125 125 94
Width: 800
VWidth: 0
Flags: HMW
LayerCount: 2
Fore
SplineSet
432 1024 m 1
 432 752 l 1
 672 512 l 1
 432 272 l 1
 432 0 l 1
 128 0 l 1
 128 64 l 1
 368 64 l 1
 368 304 l 1
 576 512 l 1
 368 720 l 1
 368 960 l 1
 128 960 l 1
 128 1024 l 1
 432 1024 l 1
EndSplineSet
Validated: 1
EndChar

StartChar: Agrave
Encoding: 192 192 95
Width: 1280
VWidth: 0
Flags: HMW
LayerCount: 2
Fore
SplineSet
533 1504 m 5
 792 1245 l 5
 745 1200 l 5
 488 1459 l 5
 533 1504 l 5
1088 960 m 1
 237 960 l 1
 1088 109 l 1
 1088 960 l 1
128 1024 m 1
 1152 1024 l 1
 1152 0 l 1
 1107 0 l 1
 192 915 l 1
 192 0 l 1
 128 0 l 1
 128 1024 l 1
EndSplineSet
Validated: 1
EndChar

StartChar: Aacute
Encoding: 193 193 96
Width: 1280
VWidth: 0
Flags: HMW
LayerCount: 2
Fore
SplineSet
747 1504 m 5
 792 1459 l 5
 533 1200 l 5
 488 1245 l 5
 747 1504 l 5
1088 960 m 1
 237 960 l 1
 1088 109 l 1
 1088 960 l 1
128 1024 m 1
 1152 1024 l 1
 1152 0 l 1
 1107 0 l 1
 192 915 l 1
 192 0 l 1
 128 0 l 1
 128 1024 l 1
EndSplineSet
Validated: 1
EndChar

StartChar: acute
Encoding: 180 180 97
Width: 560
VWidth: 0
Flags: HMW
LayerCount: 2
Fore
SplineSet
387 1504 m 1
 432 1459 l 1
 173 1200 l 1
 128 1245 l 1
 387 1504 l 1
EndSplineSet
Validated: 1
EndChar

StartChar: Acircumflex
Encoding: 194 194 98
Width: 1280
VWidth: 0
Flags: HMW
LayerCount: 2
Fore
SplineSet
1088 960 m 1
 237 960 l 1
 1088 109 l 1
 1088 960 l 1
128 1024 m 1
 1152 1024 l 1
 1152 0 l 1
 1107 0 l 1
 192 915 l 1
 192 0 l 1
 128 0 l 1
 128 1024 l 1
640 1517 m 5
 912 1245 l 5
 867 1200 l 5
 640 1427 l 5
 413 1200 l 5
 368 1245 l 5
 640 1517 l 5
EndSplineSet
Validated: 1
EndChar

StartChar: Atilde
Encoding: 195 195 99
Width: 1280
VWidth: 0
Flags: HMW
LayerCount: 2
Fore
SplineSet
1088 960 m 1
 237 960 l 1
 1088 109 l 1
 1088 960 l 1
128 1024 m 1
 1152 1024 l 1
 1152 0 l 1
 1107 0 l 1
 192 915 l 1
 192 0 l 1
 128 0 l 1
 128 1024 l 1
248 1245 m 5
 520 1517 l 5
 760 1277 l 5
 987 1504 l 5
 1032 1459 l 5
 760 1187 l 5
 520 1427 l 5
 293 1200 l 5
 248 1245 l 5
EndSplineSet
Validated: 1
EndChar

StartChar: Adieresis
Encoding: 196 196 100
Width: 1280
VWidth: 0
Flags: HMW
LayerCount: 2
Fore
SplineSet
848 1328 m 5
 912 1328 l 5
 912 1200 l 5
 848 1200 l 5
 848 1328 l 5
368 1328 m 5
 432 1328 l 5
 432 1200 l 5
 368 1200 l 5
 368 1328 l 5
1088 960 m 1
 237 960 l 1
 1088 109 l 1
 1088 960 l 1
128 1024 m 1
 1152 1024 l 1
 1152 0 l 1
 1107 0 l 1
 192 915 l 1
 192 0 l 1
 128 0 l 1
 128 1024 l 1
EndSplineSet
Validated: 1
EndChar

StartChar: Aring
Encoding: 197 197 101
Width: 1280
VWidth: 0
Flags: HMW
LayerCount: 2
Fore
SplineSet
1088 960 m 1
 237 960 l 1
 1088 109 l 1
 1088 960 l 1
128 1024 m 1
 1152 1024 l 1
 1152 0 l 1
 1107 0 l 1
 192 915 l 1
 192 0 l 1
 128 0 l 1
 128 1024 l 1
848 1440 m 25
 432 1440 l 25
 432 1264 l 29
 848 1264 l 29
 848 1440 l 25
366 1504 m 1
 912 1504 l 1
 912 1200 l 5
 366 1200 l 5
 366 1504 l 1
EndSplineSet
Validated: 1
EndChar

StartChar: AE
Encoding: 198 198 102
Width: 1280
VWidth: 0
Flags: MW
LayerCount: 2
Fore
SplineSet
608 941 m 1
 211 544 l 1
 608 544 l 1
 608 941 l 1
608 1024 m 1
 1152 1024 l 1
 1152 960 l 1
 672 960 l 1
 672 544 l 1
 912 544 l 1
 912 480 l 1
 672 480 l 1
 672 64 l 1
 1152 64 l 1
 1152 0 l 1
 608 0 l 25
 608 480 l 25
 192 480 l 25
 192 0 l 25
 128 0 l 17
 128 544 l 1
 608 1024 l 1
EndSplineSet
Validated: 1
EndChar

StartChar: Ccedilla
Encoding: 199 199 103
Width: 1280
VWidth: 0
Flags: HMW
LayerCount: 2
Fore
SplineSet
608 1024 m 9
 1152 1024 l 1
 1152 960 l 1
 627 960 l 1
 192 525 l 1
 192 64 l 1
 1152 64 l 1
 1152 0 l 1
 653 0 l 5
 413 -240 l 5
 368 -195 l 5
 563 0 l 5
 128 0 l 1
 128 544 l 1
 608 1024 l 9
EndSplineSet
Validated: 1
EndChar

StartChar: Egrave
Encoding: 200 200 104
Width: 1280
VWidth: 0
Flags: HMW
LayerCount: 2
Fore
SplineSet
533 1504 m 5
 792 1245 l 5
 745 1200 l 5
 488 1459 l 5
 533 1504 l 5
128 1024 m 25
 1152 1024 l 25
 1152 960 l 25
 192 960 l 25
 192 544 l 25
 672 544 l 25
 672 480 l 25
 192 480 l 25
 192 64 l 25
 1152 64 l 25
 1152 0 l 25
 128 0 l 25
 128 1024 l 25
EndSplineSet
Validated: 1
EndChar

StartChar: Eacute
Encoding: 201 201 105
Width: 1280
VWidth: 0
Flags: HMW
LayerCount: 2
Fore
SplineSet
747 1504 m 5
 792 1459 l 5
 533 1200 l 5
 488 1245 l 5
 747 1504 l 5
128 1024 m 25
 1152 1024 l 25
 1152 960 l 25
 192 960 l 25
 192 544 l 25
 672 544 l 25
 672 480 l 25
 192 480 l 25
 192 64 l 25
 1152 64 l 25
 1152 0 l 25
 128 0 l 25
 128 1024 l 25
EndSplineSet
Validated: 1
EndChar

StartChar: Ecircumflex
Encoding: 202 202 106
Width: 1280
VWidth: 0
Flags: HMW
LayerCount: 2
Fore
SplineSet
640 1517 m 5
 912 1245 l 5
 867 1200 l 5
 640 1427 l 5
 413 1200 l 5
 368 1245 l 5
 640 1517 l 5
128 1024 m 25
 1152 1024 l 25
 1152 960 l 25
 192 960 l 25
 192 544 l 25
 672 544 l 25
 672 480 l 25
 192 480 l 25
 192 64 l 25
 1152 64 l 25
 1152 0 l 25
 128 0 l 25
 128 1024 l 25
EndSplineSet
Validated: 1
EndChar

StartChar: Edieresis
Encoding: 203 203 107
Width: 1280
VWidth: 0
Flags: HMW
LayerCount: 2
Fore
SplineSet
848 1328 m 5
 912 1328 l 5
 912 1200 l 5
 848 1200 l 5
 848 1328 l 5
368 1328 m 5
 432 1328 l 5
 432 1200 l 5
 368 1200 l 5
 368 1328 l 5
128 1024 m 25
 1152 1024 l 25
 1152 960 l 25
 192 960 l 25
 192 544 l 25
 672 544 l 25
 672 480 l 25
 192 480 l 25
 192 64 l 25
 1152 64 l 25
 1152 0 l 25
 128 0 l 25
 128 1024 l 25
EndSplineSet
Validated: 1
EndChar

StartChar: Igrave
Encoding: 204 204 108
Width: 1280
VWidth: 0
Flags: HMW
LayerCount: 2
Fore
SplineSet
533 1504 m 5
 792 1245 l 5
 745 1200 l 5
 488 1459 l 5
 533 1504 l 5
128 1024 m 25
 1152 1024 l 25
 1152 960 l 25
 672 960 l 25
 672 64 l 25
 1152 64 l 25
 1152 0 l 25
 128 0 l 25
 128 64 l 25
 608 64 l 25
 608 960 l 25
 128 960 l 25
 128 1024 l 25
EndSplineSet
Validated: 1
EndChar

StartChar: Iacute
Encoding: 205 205 109
Width: 1280
VWidth: 0
Flags: HMW
LayerCount: 2
Fore
SplineSet
747 1504 m 1
 792 1459 l 1
 533 1200 l 1
 488 1245 l 1
 747 1504 l 1
128 1024 m 25
 1152 1024 l 25
 1152 960 l 25
 672 960 l 25
 672 64 l 25
 1152 64 l 25
 1152 0 l 25
 128 0 l 25
 128 64 l 25
 608 64 l 25
 608 960 l 25
 128 960 l 25
 128 1024 l 25
EndSplineSet
Validated: 1
EndChar

StartChar: Icircumflex
Encoding: 206 206 110
Width: 1280
VWidth: 0
Flags: HMW
LayerCount: 2
Fore
SplineSet
640 1517 m 5
 912 1245 l 5
 867 1200 l 5
 640 1427 l 5
 413 1200 l 5
 368 1245 l 5
 640 1517 l 5
128 1024 m 25
 1152 1024 l 25
 1152 960 l 25
 672 960 l 25
 672 64 l 25
 1152 64 l 25
 1152 0 l 25
 128 0 l 25
 128 64 l 25
 608 64 l 25
 608 960 l 25
 128 960 l 25
 128 1024 l 25
EndSplineSet
Validated: 1
EndChar

StartChar: Idieresis
Encoding: 207 207 111
Width: 1280
VWidth: 0
Flags: HMW
LayerCount: 2
Fore
SplineSet
848 1328 m 5
 912 1328 l 5
 912 1200 l 5
 848 1200 l 5
 848 1328 l 5
368 1328 m 5
 432 1328 l 5
 432 1200 l 5
 368 1200 l 5
 368 1328 l 5
128 1024 m 25
 1152 1024 l 25
 1152 960 l 25
 672 960 l 25
 672 64 l 25
 1152 64 l 25
 1152 0 l 25
 128 0 l 25
 128 64 l 25
 608 64 l 25
 608 960 l 25
 128 960 l 25
 128 1024 l 25
EndSplineSet
Validated: 1
EndChar

StartChar: Eth
Encoding: 208 208 112
Width: 1280
VWidth: 0
Flags: HMW
LayerCount: 2
Fore
SplineSet
653 960 m 1
 192 960 l 1
 192 544 l 1
 432 544 l 5
 432 480 l 5
 192 480 l 1
 192 64 l 1
 1088 64 l 1
 1088 525 l 1
 653 960 l 1
128 1024 m 1
 672 1024 l 1
 1152 544 l 1
 1152 0 l 1
 128 0 l 1
 128 480 l 1
 64 480 l 1
 64 544 l 1
 128 544 l 1
 128 1024 l 1
EndSplineSet
Validated: 1
EndChar

StartChar: Ntilde
Encoding: 209 209 113
Width: 1280
VWidth: 0
Flags: HMW
LayerCount: 2
Fore
SplineSet
248 1245 m 5
 520 1517 l 5
 760 1277 l 5
 987 1504 l 5
 1032 1459 l 5
 760 1187 l 5
 520 1427 l 5
 293 1200 l 5
 248 1245 l 5
173 1024 m 1
 1088 109 l 1
 1088 1024 l 1
 1152 1024 l 25
 1152 0 l 1
 1107 0 l 1
 192 915 l 1
 192 0 l 1
 128 0 l 25
 128 1024 l 1
 173 1024 l 1
EndSplineSet
Validated: 1
EndChar

StartChar: Ograve
Encoding: 210 210 114
Width: 1280
VWidth: 0
Flags: HMW
LayerCount: 2
Fore
SplineSet
533 1504 m 5
 792 1245 l 5
 745 1200 l 5
 488 1459 l 5
 533 1504 l 5
1088 960 m 25
 192 960 l 25
 192 64 l 25
 1088 64 l 25
 1088 960 l 25
128 1024 m 25
 1152 1024 l 25
 1152 0 l 25
 128 0 l 25
 128 1024 l 25
EndSplineSet
Validated: 1
EndChar

StartChar: Oacute
Encoding: 211 211 115
Width: 1280
VWidth: 0
Flags: HMW
LayerCount: 2
Fore
SplineSet
747 1504 m 5
 792 1459 l 5
 533 1200 l 5
 488 1245 l 5
 747 1504 l 5
1088 960 m 25
 192 960 l 25
 192 64 l 25
 1088 64 l 25
 1088 960 l 25
128 1024 m 25
 1152 1024 l 25
 1152 0 l 25
 128 0 l 25
 128 1024 l 25
EndSplineSet
Validated: 1
EndChar

StartChar: Ocircumflex
Encoding: 212 212 116
Width: 1280
VWidth: 0
Flags: HMW
LayerCount: 2
Fore
SplineSet
640 1517 m 5
 912 1245 l 5
 867 1200 l 5
 640 1427 l 5
 413 1200 l 5
 368 1245 l 5
 640 1517 l 5
1088 960 m 25
 192 960 l 25
 192 64 l 25
 1088 64 l 25
 1088 960 l 25
128 1024 m 25
 1152 1024 l 25
 1152 0 l 25
 128 0 l 25
 128 1024 l 25
EndSplineSet
Validated: 1
EndChar

StartChar: Otilde
Encoding: 213 213 117
Width: 1280
VWidth: 0
Flags: HMW
LayerCount: 2
Fore
SplineSet
248 1245 m 5
 520 1517 l 5
 760 1277 l 5
 987 1504 l 5
 1032 1459 l 5
 760 1187 l 5
 520 1427 l 5
 293 1200 l 5
 248 1245 l 5
1088 960 m 25
 192 960 l 25
 192 64 l 25
 1088 64 l 25
 1088 960 l 25
128 1024 m 25
 1152 1024 l 25
 1152 0 l 25
 128 0 l 25
 128 1024 l 25
EndSplineSet
Validated: 1
EndChar

StartChar: Odieresis
Encoding: 214 214 118
Width: 1280
VWidth: 0
Flags: HMW
LayerCount: 2
Fore
SplineSet
848 1328 m 5
 912 1328 l 5
 912 1200 l 5
 848 1200 l 5
 848 1328 l 5
368 1328 m 5
 432 1328 l 5
 432 1200 l 5
 368 1200 l 5
 368 1328 l 5
1088 960 m 25
 192 960 l 25
 192 64 l 25
 1088 64 l 25
 1088 960 l 25
128 1024 m 25
 1152 1024 l 25
 1152 0 l 25
 128 0 l 25
 128 1024 l 25
EndSplineSet
Validated: 1
EndChar

StartChar: multiply
Encoding: 215 215 119
Width: 1280
VWidth: 0
Flags: HMW
LayerCount: 2
Fore
SplineSet
128 979 m 5
 173 1024 l 5
 640 557 l 5
 1107 1024 l 5
 1152 979 l 5
 685 512 l 5
 1152 45 l 5
 1107 0 l 5
 640 467 l 5
 173 0 l 5
 128 45 l 5
 595 512 l 5
 128 979 l 5
EndSplineSet
Validated: 1
EndChar

StartChar: Ugrave
Encoding: 217 217 120
Width: 1280
VWidth: 0
Flags: HMW
LayerCount: 2
Fore
SplineSet
533 1504 m 5
 792 1245 l 5
 745 1200 l 5
 488 1459 l 5
 533 1504 l 5
128 1024 m 1
 192 1024 l 1
 192 499 l 1
 627 64 l 1
 1088 64 l 1
 1088 1024 l 25
 1152 1024 l 25
 1152 0 l 1
 608 0 l 1
 128 480 l 1
 128 1024 l 1
EndSplineSet
Validated: 1
EndChar

StartChar: Uacute
Encoding: 218 218 121
Width: 1280
VWidth: 0
Flags: HMW
LayerCount: 2
Fore
SplineSet
747 1504 m 5
 792 1459 l 5
 533 1200 l 5
 488 1245 l 5
 747 1504 l 5
128 1024 m 1
 192 1024 l 1
 192 499 l 1
 627 64 l 1
 1088 64 l 1
 1088 1024 l 25
 1152 1024 l 25
 1152 0 l 1
 608 0 l 1
 128 480 l 1
 128 1024 l 1
EndSplineSet
Validated: 1
EndChar

StartChar: Ucircumflex
Encoding: 219 219 122
Width: 1280
VWidth: 0
Flags: HMW
LayerCount: 2
Fore
SplineSet
640 1517 m 5
 912 1245 l 5
 867 1200 l 5
 640 1427 l 5
 413 1200 l 5
 368 1245 l 5
 640 1517 l 5
128 1024 m 1
 192 1024 l 1
 192 499 l 1
 627 64 l 1
 1088 64 l 1
 1088 1024 l 25
 1152 1024 l 25
 1152 0 l 1
 608 0 l 1
 128 480 l 1
 128 1024 l 1
EndSplineSet
Validated: 1
EndChar

StartChar: Udieresis
Encoding: 220 220 123
Width: 1280
VWidth: 0
Flags: HMW
LayerCount: 2
Fore
SplineSet
848 1328 m 5
 912 1328 l 5
 912 1200 l 5
 848 1200 l 5
 848 1328 l 5
368 1328 m 5
 432 1328 l 5
 432 1200 l 5
 368 1200 l 5
 368 1328 l 5
128 1024 m 1
 192 1024 l 1
 192 499 l 1
 627 64 l 1
 1088 64 l 1
 1088 1024 l 25
 1152 1024 l 25
 1152 0 l 1
 608 0 l 1
 128 480 l 1
 128 1024 l 1
EndSplineSet
Validated: 1
EndChar

StartChar: Yacute
Encoding: 221 221 124
Width: 1280
VWidth: 0
Flags: HMW
LayerCount: 2
Fore
SplineSet
747 1504 m 5
 792 1459 l 5
 533 1200 l 5
 488 1245 l 5
 747 1504 l 5
128 979 m 1
 173 1024 l 1
 640 557 l 1
 1107 1024 l 1
 1152 979 l 1
 672 499 l 1
 672 0 l 1
 608 0 l 1
 608 499 l 1
 128 979 l 1
EndSplineSet
Validated: 1
EndChar

StartChar: agrave
Encoding: 224 224 125
Width: 1280
VWidth: 0
Flags: HMW
LayerCount: 2
Fore
SplineSet
535 1024 m 5
 792 765 l 5
 747 720 l 5
 488 979 l 5
 535 1024 l 5
1088 240 m 1
 192 240 l 1
 192 64 l 1
 1088 64 l 1
 1088 240 l 1
128 544 m 25
 1152 544 l 25
 1152 0 l 25
 128 0 l 25
 128 304 l 25
 1088 304 l 25
 1088 480 l 25
 128 480 l 25
 128 544 l 25
EndSplineSet
Validated: 1
EndChar

StartChar: aacute
Encoding: 225 225 126
Width: 1280
VWidth: 0
Flags: MW
LayerCount: 2
Fore
SplineSet
747 1024 m 5
 792 979 l 5
 535 720 l 5
 490 765 l 5
 747 1024 l 5
1088 240 m 1
 192 240 l 1
 192 64 l 1
 1088 64 l 1
 1088 240 l 1
128 544 m 25
 1152 544 l 25
 1152 0 l 25
 128 0 l 25
 128 304 l 25
 1088 304 l 25
 1088 480 l 25
 128 480 l 25
 128 544 l 25
EndSplineSet
Validated: 1
EndChar

StartChar: acircumflex
Encoding: 226 226 127
Width: 1280
VWidth: 0
Flags: HMW
LayerCount: 2
Fore
SplineSet
640 1024 m 5
 914 750 l 5
 869 705 l 5
 640 934 l 5
 411 705 l 5
 366 750 l 5
 640 1024 l 5
1088 240 m 1
 192 240 l 1
 192 64 l 1
 1088 64 l 1
 1088 240 l 1
128 544 m 25
 1152 544 l 25
 1152 0 l 25
 128 0 l 25
 128 304 l 25
 1088 304 l 25
 1088 480 l 25
 128 480 l 25
 128 544 l 25
EndSplineSet
Validated: 1
EndChar

StartChar: atilde
Encoding: 227 227 128
Width: 1280
VWidth: 0
Flags: HMW
LayerCount: 2
Fore
SplineSet
248 765 m 5
 520 1037 l 5
 760 797 l 5
 987 1024 l 5
 1032 979 l 5
 760 707 l 5
 520 947 l 5
 293 720 l 5
 248 765 l 5
1088 240 m 1
 192 240 l 1
 192 64 l 1
 1088 64 l 1
 1088 240 l 1
128 544 m 25
 1152 544 l 25
 1152 0 l 25
 128 0 l 25
 128 304 l 25
 1088 304 l 25
 1088 480 l 25
 128 480 l 25
 128 544 l 25
EndSplineSet
Validated: 1
EndChar

StartChar: adieresis
Encoding: 228 228 129
Width: 1280
VWidth: 0
Flags: HMW
LayerCount: 2
Fore
SplineSet
912 848 m 5
 912 720 l 5
 848 720 l 5
 848 848 l 5
 912 848 l 5
432 848 m 5
 432 720 l 5
 368 720 l 5
 368 848 l 5
 432 848 l 5
1088 240 m 1
 192 240 l 1
 192 64 l 1
 1088 64 l 1
 1088 240 l 1
128 544 m 25
 1152 544 l 25
 1152 0 l 25
 128 0 l 25
 128 304 l 25
 1088 304 l 25
 1088 480 l 25
 128 480 l 25
 128 544 l 25
EndSplineSet
Validated: 1
EndChar

StartChar: aring
Encoding: 229 229 130
Width: 1280
VWidth: 0
Flags: HMW
LayerCount: 2
Fore
SplineSet
848 960 m 25
 432 960 l 1
 432 784 l 25
 848 784 l 1
 848 960 l 25
368 1024 m 29
 912 1024 l 25
 912 720 l 25
 368 720 l 29
 368 1024 l 29
1088 240 m 1
 192 240 l 1
 192 64 l 1
 1088 64 l 1
 1088 240 l 1
128 544 m 25
 1152 544 l 25
 1152 0 l 25
 128 0 l 25
 128 304 l 25
 1088 304 l 25
 1088 480 l 25
 128 480 l 25
 128 544 l 25
EndSplineSet
Validated: 1
EndChar

StartChar: ae
Encoding: 230 230 131
Width: 1280
VWidth: 0
Flags: MW
LayerCount: 2
Fore
SplineSet
1088 480 m 1
 672 480 l 1
 672 304 l 1
 1088 304 l 1
 1088 480 l 1
608 240 m 25
 192 240 l 25
 192 64 l 29
 608 64 l 29
 608 240 l 25
128 544 m 25
 1152 544 l 1
 1152 240 l 1
 672 240 l 1
 672 64 l 5
 1152 64 l 5
 1152 0 l 1
 128 0 l 1
 128 304 l 25
 608 304 l 25
 608 480 l 25
 128 480 l 25
 128 544 l 25
EndSplineSet
Validated: 1
EndChar

StartChar: ccedilla
Encoding: 231 231 132
Width: 1280
VWidth: 0
Flags: HMW
LayerCount: 2
Fore
SplineSet
1152 544 m 1
 1152 480 l 1
 192 480 l 1
 192 64 l 1
 1152 64 l 1
 1152 0 l 1
 653 0 l 5
 413 -240 l 1
 368 -195 l 1
 563 0 l 1
 128 0 l 1
 128 544 l 1
 1152 544 l 1
EndSplineSet
Validated: 1
EndChar

StartChar: egrave
Encoding: 232 232 133
Width: 1280
VWidth: 0
Flags: HMW
LayerCount: 2
Fore
SplineSet
655 1024 m 5
 912 765 l 5
 867 720 l 5
 608 979 l 5
 655 1024 l 5
1088 480 m 1
 387 480 l 1
 211 304 l 1
 1088 304 l 1
 1088 480 l 1
368 544 m 1
 1152 544 l 1
 1152 240 l 25
 192 240 l 25
 192 64 l 25
 1152 64 l 25
 1152 0 l 25
 128 0 l 1
 128 304 l 1
 368 544 l 1
EndSplineSet
Validated: 1
EndChar

StartChar: eacute
Encoding: 233 233 134
Width: 1280
VWidth: 0
Flags: HMW
LayerCount: 2
Fore
SplineSet
867 1024 m 5
 912 979 l 5
 655 720 l 5
 610 765 l 5
 867 1024 l 5
1088 480 m 1
 387 480 l 1
 211 304 l 1
 1088 304 l 1
 1088 480 l 1
368 544 m 1
 1152 544 l 1
 1152 240 l 25
 192 240 l 25
 192 64 l 25
 1152 64 l 25
 1152 0 l 25
 128 0 l 1
 128 304 l 1
 368 544 l 1
EndSplineSet
Validated: 1
EndChar

StartChar: ecircumflex
Encoding: 234 234 135
Width: 1280
VWidth: 0
Flags: HMW
LayerCount: 2
Fore
SplineSet
760 1024 m 5
 1034 750 l 5
 989 705 l 5
 760 934 l 5
 531 705 l 5
 486 750 l 5
 760 1024 l 5
1088 480 m 1
 387 480 l 1
 211 304 l 1
 1088 304 l 1
 1088 480 l 1
368 544 m 1
 1152 544 l 1
 1152 240 l 25
 192 240 l 25
 192 64 l 25
 1152 64 l 25
 1152 0 l 25
 128 0 l 1
 128 304 l 1
 368 544 l 1
EndSplineSet
Validated: 1
EndChar

StartChar: edieresis
Encoding: 235 235 136
Width: 1280
VWidth: 0
Flags: HMW
LayerCount: 2
Fore
SplineSet
1032 848 m 5
 1032 720 l 5
 968 720 l 5
 968 848 l 5
 1032 848 l 5
552 848 m 5
 552 720 l 5
 488 720 l 5
 488 848 l 5
 552 848 l 5
1088 480 m 1
 387 480 l 1
 211 304 l 1
 1088 304 l 1
 1088 480 l 1
368 544 m 1
 1152 544 l 1
 1152 240 l 25
 192 240 l 25
 192 64 l 25
 1152 64 l 25
 1152 0 l 25
 128 0 l 1
 128 304 l 1
 368 544 l 1
EndSplineSet
Validated: 1
EndChar

StartChar: igrave
Encoding: 236 236 137
Width: 560
VWidth: 0
Flags: HMW
LayerCount: 2
Fore
SplineSet
175 1024 m 1
 432 765 l 1
 387 720 l 1
 128 979 l 1
 175 1024 l 1
248 608 m 25
 312 608 l 25
 312 0 l 25
 248 0 l 25
 248 608 l 25
EndSplineSet
Validated: 1
EndChar

StartChar: iacute
Encoding: 237 237 138
Width: 560
VWidth: 0
Flags: HMW
LayerCount: 2
Fore
SplineSet
387 1024 m 1
 432 979 l 1
 175 720 l 1
 130 765 l 1
 387 1024 l 1
248 608 m 25
 312 608 l 25
 312 0 l 25
 248 0 l 25
 248 608 l 25
EndSplineSet
Validated: 1
EndChar

StartChar: icircumflex
Encoding: 238 238 139
Width: 800
VWidth: 0
Flags: HMW
LayerCount: 2
Fore
SplineSet
400 1024 m 5
 674 750 l 5
 629 705 l 5
 400 934 l 5
 171 705 l 5
 126 750 l 5
 400 1024 l 5
368 608 m 25
 432 608 l 25
 432 0 l 25
 368 0 l 25
 368 608 l 25
EndSplineSet
Validated: 1
EndChar

StartChar: idieresis
Encoding: 239 239 140
Width: 800
VWidth: 0
Flags: HMW
LayerCount: 2
Fore
SplineSet
672 848 m 1
 672 720 l 1
 608 720 l 1
 608 848 l 1
 672 848 l 1
192 848 m 1
 192 720 l 1
 128 720 l 1
 128 848 l 1
 192 848 l 1
368 608 m 25
 432 608 l 25
 432 0 l 25
 368 0 l 25
 368 608 l 25
EndSplineSet
Validated: 1
EndChar

StartChar: eth
Encoding: 240 240 141
Width: 1280
VWidth: 0
Flags: MW
LayerCount: 2
Fore
SplineSet
1088 480 m 25
 192 480 l 25
 192 64 l 25
 1088 64 l 25
 1088 480 l 25
128 544 m 25
 1088 544 l 17
 1088 720 l 1
 848 720 l 5
 848 784 l 5
 1088 784 l 1
 1088 1024 l 9
 1152 1024 l 1
 1152 784 l 1
 1216 784 l 1
 1216 720 l 1
 1152 720 l 1
 1152 0 l 9
 128 0 l 25
 128 544 l 25
EndSplineSet
Validated: 1
EndChar

StartChar: ntilde
Encoding: 241 241 142
Width: 1280
VWidth: 0
Flags: HMW
LayerCount: 2
Fore
SplineSet
248 765 m 5
 520 1037 l 5
 760 797 l 5
 987 1024 l 5
 1032 979 l 5
 760 707 l 5
 520 947 l 5
 293 720 l 5
 248 765 l 5
128 0 m 25
 128 544 l 25
 1152 544 l 25
 1152 0 l 25
 1088 0 l 25
 1088 480 l 25
 192 480 l 25
 192 0 l 25
 128 0 l 25
EndSplineSet
Validated: 1
EndChar

StartChar: ograve
Encoding: 242 242 143
Width: 1280
VWidth: 0
Flags: HMW
LayerCount: 2
Fore
SplineSet
535 1024 m 5
 792 765 l 5
 747 720 l 5
 488 979 l 5
 535 1024 l 5
1088 480 m 25
 192 480 l 25
 192 64 l 25
 1088 64 l 25
 1088 480 l 25
128 0 m 25
 128 544 l 25
 1152 544 l 25
 1152 0 l 25
 128 0 l 25
EndSplineSet
Validated: 1
EndChar

StartChar: oacute
Encoding: 243 243 144
Width: 1280
VWidth: 0
Flags: HMW
LayerCount: 2
Fore
SplineSet
747 1024 m 5
 792 979 l 5
 535 720 l 5
 490 765 l 5
 747 1024 l 5
1088 480 m 25
 192 480 l 25
 192 64 l 25
 1088 64 l 25
 1088 480 l 25
128 0 m 25
 128 544 l 25
 1152 544 l 25
 1152 0 l 25
 128 0 l 25
EndSplineSet
Validated: 1
EndChar

StartChar: ocircumflex
Encoding: 244 244 145
Width: 1280
VWidth: 0
Flags: HMW
LayerCount: 2
Fore
SplineSet
640 1024 m 5
 914 750 l 5
 869 705 l 5
 640 934 l 5
 411 705 l 5
 366 750 l 5
 640 1024 l 5
1088 480 m 25
 192 480 l 25
 192 64 l 25
 1088 64 l 25
 1088 480 l 25
128 0 m 25
 128 544 l 25
 1152 544 l 25
 1152 0 l 25
 128 0 l 25
EndSplineSet
Validated: 1
EndChar

StartChar: otilde
Encoding: 245 245 146
Width: 1280
VWidth: 0
Flags: HMW
LayerCount: 2
Fore
SplineSet
248 765 m 5
 520 1037 l 5
 760 797 l 5
 987 1024 l 5
 1032 979 l 5
 760 707 l 5
 520 947 l 5
 293 720 l 5
 248 765 l 5
1088 480 m 25
 192 480 l 25
 192 64 l 25
 1088 64 l 25
 1088 480 l 25
128 0 m 25
 128 544 l 25
 1152 544 l 25
 1152 0 l 25
 128 0 l 25
EndSplineSet
Validated: 1
EndChar

StartChar: odieresis
Encoding: 246 246 147
Width: 1280
VWidth: 0
Flags: HMW
LayerCount: 2
Fore
SplineSet
912 848 m 5
 912 720 l 5
 848 720 l 5
 848 848 l 5
 912 848 l 5
432 848 m 5
 432 720 l 5
 368 720 l 5
 368 848 l 5
 432 848 l 5
1088 480 m 25
 192 480 l 25
 192 64 l 25
 1088 64 l 25
 1088 480 l 25
128 0 m 25
 128 544 l 25
 1152 544 l 25
 1152 0 l 25
 128 0 l 25
EndSplineSet
Validated: 1
EndChar

StartChar: divide
Encoding: 247 247 148
Width: 1280
VWidth: 0
Flags: MW
LayerCount: 2
Fore
SplineSet
608 304 m 5
 672 304 l 5
 672 176 l 5
 608 176 l 5
 608 304 l 5
608 848 m 1
 672 848 l 1
 672 720 l 1
 608 720 l 1
 608 848 l 1
1152 544 m 25
 1152 480 l 25
 128 480 l 25
 128 544 l 25
 1152 544 l 25
EndSplineSet
Validated: 1
EndChar

StartChar: ugrave
Encoding: 249 249 149
Width: 1280
VWidth: 0
Flags: HMW
LayerCount: 2
Fore
SplineSet
535 1024 m 5
 792 765 l 5
 747 720 l 5
 488 979 l 5
 535 1024 l 5
128 544 m 25
 192 544 l 25
 192 64 l 25
 1088 64 l 25
 1088 544 l 25
 1152 544 l 25
 1152 0 l 25
 128 0 l 25
 128 544 l 25
EndSplineSet
Validated: 1
EndChar

StartChar: uacute
Encoding: 250 250 150
Width: 1280
VWidth: 0
Flags: HMW
LayerCount: 2
Fore
SplineSet
747 1024 m 5
 792 979 l 5
 535 720 l 5
 490 765 l 5
 747 1024 l 5
128 544 m 25
 192 544 l 25
 192 64 l 25
 1088 64 l 25
 1088 544 l 25
 1152 544 l 25
 1152 0 l 25
 128 0 l 25
 128 544 l 25
EndSplineSet
Validated: 1
EndChar

StartChar: ucircumflex
Encoding: 251 251 151
Width: 1280
VWidth: 0
Flags: HMW
LayerCount: 2
Fore
SplineSet
640 1024 m 5
 914 750 l 5
 869 705 l 5
 640 934 l 5
 411 705 l 5
 366 750 l 5
 640 1024 l 5
128 544 m 25
 192 544 l 25
 192 64 l 25
 1088 64 l 25
 1088 544 l 25
 1152 544 l 25
 1152 0 l 25
 128 0 l 25
 128 544 l 25
EndSplineSet
Validated: 1
EndChar

StartChar: udieresis
Encoding: 252 252 152
Width: 1280
VWidth: 0
Flags: HMW
LayerCount: 2
Fore
SplineSet
912 848 m 5
 912 720 l 5
 848 720 l 5
 848 848 l 5
 912 848 l 5
432 848 m 5
 432 720 l 5
 368 720 l 5
 368 848 l 5
 432 848 l 5
128 544 m 25
 192 544 l 25
 192 64 l 25
 1088 64 l 25
 1088 544 l 25
 1152 544 l 25
 1152 0 l 25
 128 0 l 25
 128 544 l 25
EndSplineSet
Validated: 1
EndChar

StartChar: yacute
Encoding: 253 253 153
Width: 1280
VWidth: 0
Flags: HMW
LayerCount: 2
Fore
SplineSet
747 1024 m 5
 792 979 l 5
 535 720 l 5
 490 765 l 5
 747 1024 l 5
128 499 m 1
 173 544 l 1
 640 77 l 1
 1107 544 l 1
 1152 499 l 1
 173 -480 l 1
 128 -435 l 1
 595 32 l 1
 128 499 l 1
EndSplineSet
Validated: 1
EndChar

StartChar: ydieresis
Encoding: 255 255 154
Width: 1280
VWidth: 0
Flags: HMW
LayerCount: 2
Fore
SplineSet
912 848 m 5
 912 720 l 5
 848 720 l 5
 848 848 l 5
 912 848 l 5
432 848 m 5
 432 720 l 5
 368 720 l 5
 368 848 l 5
 432 848 l 5
128 499 m 1
 173 544 l 1
 640 77 l 1
 1107 544 l 1
 1152 499 l 1
 173 -480 l 1
 128 -435 l 1
 595 32 l 1
 128 499 l 1
EndSplineSet
Validated: 1
EndChar

StartChar: Oslash
Encoding: 216 216 155
Width: 1280
VWidth: 0
Flags: MW
LayerCount: 2
Fore
SplineSet
1088 915 m 1
 237 64 l 1
 1088 64 l 1
 1088 915 l 1
1043 960 m 1
 192 960 l 1
 192 109 l 1
 1043 960 l 1
128 1024 m 1
 1107 1024 l 1
 1171 1088 l 1
 1216 1043 l 1
 1152 979 l 1
 1152 0 l 1
 173 0 l 1
 109 -64 l 1
 64 -19 l 1
 128 45 l 1
 128 1024 l 1
EndSplineSet
Validated: 1
EndChar

StartChar: oslash
Encoding: 248 248 156
Width: 1280
VWidth: 0
Flags: HMW
LayerCount: 2
Fore
SplineSet
1088 480 m 1
 893 480 l 1
 477 64 l 1
 1088 64 l 5
 1088 480 l 1
801 480 m 1
 192 480 l 1
 192 64 l 1
 385 64 l 1
 801 480 l 1
128 0 m 1
 128 544 l 1
 867 544 l 1
 976 653 l 1
 1021 608 l 1
 957 544 l 1
 1152 544 l 1
 1152 0 l 1
 413 0 l 1
 305 -108 l 1
 257 -64 l 1
 321 0 l 1
 128 0 l 1
EndSplineSet
Validated: 1
EndChar

StartChar: questiondown
Encoding: 191 191 157
Width: 1280
VWidth: 0
Flags: HMW
LayerCount: 2
Fore
SplineSet
1152 240 m 5
 672 -240 l 5
 128 -240 l 5
 128 304 l 1
 608 304 l 1
 608 544 l 1
 672 544 l 1
 672 240 l 1
 192 240 l 1
 192 -176 l 5
 646 -176 l 5
 1107 285 l 5
 1152 240 l 5
672 784 m 1
 672 656 l 1
 608 656 l 1
 608 784 l 1
 672 784 l 1
EndSplineSet
Validated: 1
EndChar

StartChar: mu
Encoding: 181 181 158
Width: 1280
VWidth: 0
Flags: HMW
LayerCount: 2
Fore
SplineSet
128 544 m 25
 192 544 l 25
 192 64 l 25
 1088 64 l 25
 1088 544 l 25
 1152 544 l 25
 1152 0 l 17
 192 0 l 1
 192 -240 l 5
 128 -240 l 5
 128 544 l 25
EndSplineSet
Validated: 1
EndChar

StartChar: paragraph
Encoding: 182 182 159
Width: 1280
VWidth: 0
Flags: MW
LayerCount: 2
Fore
SplineSet
1088 960 m 1
 672 960 l 1
 672 544 l 1
 1088 544 l 1
 1088 960 l 1
128 1024 m 1
 1152 1024 l 1
 1152 0 l 1
 1088 0 l 1
 1088 480 l 1
 672 480 l 1
 672 0 l 1
 608 0 l 1
 608 480 l 1
 128 480 l 1
 128 1024 l 1
EndSplineSet
Validated: 1
EndChar

StartChar: cedilla
Encoding: 184 184 160
Width: 608
VWidth: 0
Flags: HMW
LayerCount: 2
Fore
SplineSet
387 68 m 5
 432 19 l 5
 173 -240 l 5
 128 -195 l 5
 387 68 l 5
EndSplineSet
Validated: 1
EndChar

StartChar: periodcentered
Encoding: 183 183 161
Width: 320
VWidth: 0
Flags: HMW
LayerCount: 2
Fore
SplineSet
128 480 m 5
 128 610 l 5
 192 610 l 5
 192 480 l 5
 128 480 l 5
EndSplineSet
Validated: 1
EndChar

StartChar: ordmasculine
Encoding: 186 186 162
Width: 560
VWidth: 0
Flags: HMW
LayerCount: 2
Fore
SplineSet
368 1440 m 5
 192 1440 l 5
 192 1264 l 5
 368 1264 l 5
 368 1440 l 5
128 1200 m 5
 128 1504 l 5
 432 1504 l 5
 432 1200 l 29
 128 1200 l 5
EndSplineSet
Validated: 1
EndChar

StartChar: plusminus
Encoding: 177 177 163
Width: 1280
VWidth: 0
Flags: HMW
LayerCount: 2
Fore
SplineSet
128 64 m 25
 1152 64 l 25
 1152 0 l 25
 128 0 l 25
 128 64 l 25
608 1024 m 29
 672 1024 l 29
 672 544 l 25
 1152 544 l 25
 1152 480 l 25
 672 480 l 25
 672 128 l 25
 608 128 l 25
 608 480 l 25
 128 480 l 25
 128 544 l 25
 608 544 l 25
 608 1024 l 29
EndSplineSet
Validated: 1
EndChar

StartChar: uni00AD
Encoding: 173 173 164
Width: 800
VWidth: 0
Flags: HMW
LayerCount: 2
Fore
SplineSet
672 544 m 29
 672 480 l 29
 128 480 l 29
 128 544 l 29
 672 544 l 29
EndSplineSet
Validated: 1
EndChar

StartChar: logicalnot
Encoding: 172 172 165
Width: 1280
VWidth: 0
Flags: MW
LayerCount: 2
Fore
SplineSet
1152 544 m 1
 1152 240 l 1
 1088 240 l 5
 1088 480 l 1
 128 480 l 1
 128 544 l 25
 1152 544 l 1
EndSplineSet
Validated: 1
EndChar

StartChar: macron
Encoding: 175 175 166
Width: 1280
VWidth: 0
Flags: MW
LayerCount: 2
Fore
SplineSet
1152 1024 m 29
 1152 960 l 29
 128 960 l 29
 128 1024 l 29
 1152 1024 l 29
EndSplineSet
Validated: 1
EndChar

StartChar: cent
Encoding: 162 162 167
Width: 1280
VWidth: 0
Flags: HMW
LayerCount: 2
Fore
SplineSet
128 544 m 1
 608 544 l 1
 608 784 l 1
 672 784 l 1
 672 544 l 1
 1152 544 l 1
 1152 480 l 25
 192 480 l 25
 192 64 l 25
 1152 64 l 25
 1152 0 l 1
 672 0 l 1
 672 -240 l 1
 608 -240 l 1
 608 0 l 1
 128 0 l 1
 128 544 l 1
EndSplineSet
Validated: 1
EndChar

StartChar: currency
Encoding: 164 164 168
Width: 1280
VWidth: 0
Flags: HMW
LayerCount: 2
Fore
SplineSet
848 720 m 25
 432 720 l 25
 432 304 l 25
 848 304 l 25
 848 720 l 25
128 979 m 1
 173 1024 l 1
 413 784 l 1
 867 784 l 1
 1107 1024 l 1
 1152 979 l 1
 912 739 l 1
 912 285 l 1
 1152 45 l 1
 1107 0 l 1
 867 240 l 1
 413 240 l 1
 173 0 l 1
 128 45 l 1
 368 285 l 1
 368 739 l 1
 128 979 l 1
EndSplineSet
Validated: 1
EndChar

StartChar: brokenbar
Encoding: 166 166 169
Width: 320
VWidth: 0
Flags: HMW
LayerCount: 2
Fore
SplineSet
128 1024 m 1
 192 1024 l 1
 192 544 l 1
 128 544 l 1
 128 1024 l 1
128 480 m 1
 192 480 l 1
 192 0 l 1
 128 0 l 1
 128 480 l 1
EndSplineSet
Validated: 1
EndChar

StartChar: dieresis
Encoding: 168 168 170
Width: 800
VWidth: 0
Flags: HMW
LayerCount: 2
Fore
SplineSet
608 1328 m 1
 672 1328 l 1
 672 1200 l 1
 608 1200 l 1
 608 1328 l 1
128 1328 m 1
 192 1328 l 1
 192 1200 l 1
 128 1200 l 1
 128 1328 l 1
EndSplineSet
Validated: 1
EndChar

StartChar: sterling
Encoding: 163 163 171
Width: 1280
VWidth: 0
Flags: HMW
LayerCount: 2
Fore
SplineSet
1152 720 m 1
 1088 720 l 1
 1088 960 l 1
 627 960 l 1
 432 765 l 1
 432 544 l 1
 912 544 l 1
 912 480 l 1
 432 480 l 1
 432 64 l 1
 1088 64 l 1
 1088 128 l 1
 1152 128 l 1
 1152 0 l 1
 128 0 l 1
 128 64 l 1
 368 64 l 1
 368 480 l 1
 128 480 l 1
 128 544 l 1
 368 544 l 1
 368 784 l 1
 608 1024 l 1
 1152 1024 l 1
 1152 720 l 1
EndSplineSet
Validated: 1
EndChar

StartChar: yen
Encoding: 165 165 172
Width: 1280
VWidth: 0
Flags: HMW
LayerCount: 2
Fore
SplineSet
128 979 m 1
 173 1024 l 1
 640 557 l 1
 1107 1024 l 1
 1152 979 l 1
 672 499 l 1
 672 304 l 1
 912 304 l 1
 912 240 l 1
 672 240 l 1
 672 64 l 1
 912 64 l 1
 912 0 l 1
 368 0 l 5
 368 64 l 5
 608 64 l 1
 608 240 l 1
 368 240 l 1
 368 304 l 1
 608 304 l 1
 608 499 l 1
 128 979 l 1
EndSplineSet
Validated: 1
EndChar

StartChar: copyright
Encoding: 169 169 173
Width: 1280
VWidth: 0
Flags: HMW
LayerCount: 2
Fore
SplineSet
912 784 m 1
 912 720 l 25
 432 720 l 1
 432 304 l 1
 912 304 l 1
 912 240 l 1
 368 240 l 5
 368 784 l 29
 912 784 l 1
1088 960 m 25
 192 960 l 25
 192 64 l 25
 1088 64 l 25
 1088 960 l 25
128 1024 m 25
 1152 1024 l 25
 1152 0 l 25
 128 0 l 25
 128 1024 l 25
EndSplineSet
Validated: 1
EndChar

StartChar: registered
Encoding: 174 174 174
Width: 1280
VWidth: 0
Flags: HMW
LayerCount: 2
Fore
SplineSet
848 720 m 1
 432 720 l 1
 432 544 l 1
 848 544 l 1
 848 720 l 1
1088 960 m 25
 192 960 l 25
 192 64 l 1
 803 64 l 1
 432 435 l 1
 432 240 l 1
 368 240 l 1
 368 784 l 1
 912 784 l 1
 912 480 l 1
 477 480 l 1
 893 64 l 5
 1088 64 l 1
 1088 960 l 25
128 1024 m 25
 1152 1024 l 25
 1152 0 l 25
 128 0 l 25
 128 1024 l 25
EndSplineSet
Validated: 1
EndChar

StartChar: guillemotright
Encoding: 187 187 175
Width: 1280
VWidth: 0
Flags: HMW
LayerCount: 2
Fore
SplineSet
128 979 m 1
 173 1024 l 1
 685 512 l 1
 173 0 l 1
 128 45 l 1
 595 512 l 1
 128 979 l 1
608 979 m 5
 653 1024 l 5
 1165 512 l 5
 653 0 l 5
 608 45 l 5
 1075 512 l 5
 608 979 l 5
EndSplineSet
Validated: 1
EndChar

StartChar: guillemotleft
Encoding: 171 171 176
Width: 1280
VWidth: 0
Flags: HMW
LayerCount: 2
Fore
SplineSet
1107 1024 m 1
 1152 979 l 1
 685 512 l 1
 1152 45 l 1
 1107 0 l 1
 595 512 l 1
 1107 1024 l 1
627 1024 m 1
 672 979 l 1
 205 512 l 1
 672 45 l 1
 627 0 l 1
 115 512 l 1
 627 1024 l 1
EndSplineSet
Validated: 1
EndChar

StartChar: degree
Encoding: 176 176 177
Width: 560
VWidth: 0
Flags: HMW
LayerCount: 2
Fore
SplineSet
368 1440 m 5
 192 1440 l 5
 192 1264 l 5
 368 1264 l 5
 368 1440 l 5
128 1200 m 5
 128 1504 l 5
 432 1504 l 5
 432 1200 l 29
 128 1200 l 5
EndSplineSet
Validated: 1
EndChar

StartChar: section
Encoding: 167 167 178
Width: 1280
VWidth: 0
Flags: MW
LayerCount: 2
Fore
SplineSet
256 960 m 1
 192 960 l 1
 192 480 l 1
 986 480 l 1
 986 416 l 1
 634 64 l 1
 717 64 l 1
 1088 435 l 1
 1088 544 l 1
 256 544 l 1
 256 960 l 1
128 1024 m 25
 1152 1024 l 25
 1152 960 l 25
 322 960 l 25
 322 604 l 25
 1152 604 l 25
 1152 416 l 1
 736 0 l 25
 128 0 l 1
 128 64 l 1
 561 64 l 1
 913 416 l 1
 128 416 l 1
 128 1024 l 25
EndSplineSet
Validated: 1
EndChar

StartChar: asterisk
Encoding: 42 42 179
Width: 800
VWidth: 0
Flags: HMW
LayerCount: 2
Fore
SplineSet
368 1024 m 1
 432 1024 l 1
 432 829 l 1
 582 979 l 1
 627 934 l 1
 477 784 l 1
 672 784 l 1
 672 720 l 1
 477 720 l 1
 627 570 l 5
 582 525 l 5
 432 675 l 1
 432 480 l 1
 368 480 l 1
 368 675 l 1
 218 525 l 1
 173 570 l 1
 323 720 l 1
 128 720 l 1
 128 784 l 1
 323 784 l 1
 173 934 l 1
 218 979 l 1
 368 829 l 1
 368 1024 l 1
EndSplineSet
Validated: 1
EndChar

StartChar: thorn
Encoding: 254 254 180
Width: 800
VWidth: 0
Flags: HMW
LayerCount: 2
Fore
SplineSet
608 240 m 25
 192 240 l 25
 192 -176 l 25
 608 -176 l 25
 608 240 l 25
128 1024 m 1
 192 1024 l 1
 192 304 l 1
 672 304 l 1
 672 -240 l 25
 192 -240 l 25
 192 -480 l 25
 128 -480 l 25
 128 1024 l 1
EndSplineSet
Validated: 1
EndChar

StartChar: Thorn
Encoding: 222 222 181
Width: 800
VWidth: 0
Flags: HMW
LayerCount: 2
Fore
SplineSet
608 720 m 25
 192 720 l 25
 192 304 l 25
 608 304 l 25
 608 720 l 25
128 1024 m 1
 192 1024 l 1
 192 784 l 1
 672 784 l 1
 672 240 l 25
 192 240 l 25
 192 0 l 25
 128 0 l 25
 128 1024 l 1
EndSplineSet
Validated: 1
EndChar

StartChar: germandbls
Encoding: 223 223 182
Width: 1280
VWidth: 0
Flags: HMW
LayerCount: 2
Fore
SplineSet
653 960 m 1
 192 960 l 1
 192 544 l 1
 1069 544 l 1
 653 960 l 1
128 1024 m 1
 672 1024 l 25
 1152 544 l 1
 1152 0 l 1
 368 0 l 5
 368 128 l 5
 432 128 l 1
 432 64 l 1
 1088 64 l 1
 1088 480 l 1
 192 480 l 1
 192 0 l 1
 64 0 l 1
 64 64 l 1
 128 64 l 1
 128 480 l 1
 64 480 l 1
 64 544 l 1
 128 544 l 1
 128 1024 l 1
EndSplineSet
Validated: 1
EndChar

StartChar: uni00B9
Encoding: 185 185 183
Width: 800
VWidth: 0
Flags: HMW
LayerCount: 2
Fore
SplineSet
128 1200 m 1
 128 1264 l 1
 368 1264 l 1
 368 1440 l 1
 128 1440 l 1
 128 1504 l 1
 432 1504 l 1
 432 1264 l 1
 672 1264 l 1
 672 1200 l 1
 128 1200 l 1
EndSplineSet
Validated: 1
EndChar

StartChar: uni00B2
Encoding: 178 178 184
Width: 800
VWidth: 0
Flags: HMW
LayerCount: 2
Fore
SplineSet
128 1504 m 1
 552 1504 l 1
 672 1384 l 1
 672 1320 l 1
 192 1320 l 1
 192 1264 l 1
 672 1264 l 1
 672 1200 l 1
 128 1200 l 1
 128 1384 l 1
 589 1384 l 1
 533 1440 l 1
 128 1440 l 1
 128 1504 l 1
EndSplineSet
Validated: 1
EndChar

StartChar: uni00B3
Encoding: 179 179 185
Width: 800
VWidth: 0
Flags: HMW
LayerCount: 2
Fore
SplineSet
128 1200 m 1
 128 1264 l 1
 608 1264 l 1
 608 1320 l 1
 368 1320 l 1
 368 1384 l 1
 608 1384 l 1
 608 1440 l 1
 128 1440 l 1
 128 1504 l 1
 672 1504 l 1
 672 1200 l 1
 128 1200 l 1
EndSplineSet
Validated: 1
EndChar

StartChar: onequarter
Encoding: 188 188 186
Width: 1280
VWidth: 0
Flags: HMW
LayerCount: 2
Fore
SplineSet
848 461 m 1
 691 304 l 1
 848 304 l 1
 848 461 l 1
912 544 m 25
 912 304 l 1
 1152 304 l 1
 1152 240 l 1
 912 240 l 1
 912 0 l 1
 848 0 l 1
 848 240 l 1
 608 240 l 1
 608 304 l 1
 848 544 l 1
 912 544 l 25
128 720 m 1
 128 784 l 1
 368 784 l 5
 368 960 l 5
 128 960 l 1
 128 1024 l 1
 432 1024 l 1
 432 784 l 1
 672 784 l 1
 672 720 l 1
 128 720 l 1
1107 1024 m 1
 1152 979 l 1
 173 0 l 1
 128 45 l 1
 1107 1024 l 1
EndSplineSet
Validated: 1
EndChar

StartChar: onehalf
Encoding: 189 189 187
Width: 1280
VWidth: 0
Flags: HMW
LayerCount: 2
Fore
SplineSet
608 304 m 1
 1029 304 l 1
 1152 181 l 1
 1152 120 l 1
 672 120 l 1
 672 64 l 1
 1152 64 l 1
 1152 0 l 1
 608 0 l 1
 608 184 l 1
 1059 184 l 1
 1003 240 l 1
 608 240 l 1
 608 304 l 1
128 720 m 1
 128 784 l 1
 368 784 l 5
 368 960 l 5
 128 960 l 1
 128 1024 l 1
 432 1024 l 1
 432 784 l 1
 672 784 l 1
 672 720 l 1
 128 720 l 1
1107 1024 m 1
 1152 979 l 1
 173 0 l 1
 128 45 l 1
 1107 1024 l 1
EndSplineSet
Validated: 1
EndChar

StartChar: threequarters
Encoding: 190 190 188
Width: 1280
VWidth: 0
Flags: HMW
LayerCount: 2
Fore
SplineSet
848 461 m 1
 691 304 l 1
 848 304 l 1
 848 461 l 1
912 544 m 25
 912 304 l 1
 1152 304 l 1
 1152 240 l 1
 912 240 l 1
 912 0 l 1
 848 0 l 1
 848 240 l 1
 608 240 l 1
 608 304 l 1
 848 544 l 1
 912 544 l 25
128 720 m 1
 128 784 l 1
 608 784 l 1
 608 840 l 1
 368 840 l 5
 368 904 l 5
 608 904 l 1
 608 960 l 1
 128 960 l 1
 128 1024 l 1
 672 1024 l 1
 672 720 l 1
 128 720 l 1
1107 1024 m 1
 1152 979 l 1
 173 0 l 1
 128 45 l 1
 1107 1024 l 1
EndSplineSet
Validated: 1
EndChar

StartChar: emdash
Encoding: 170 8212 189
Width: 1280
VWidth: 0
Flags: HW
LayerCount: 2
Fore
SplineSet
1152 544 m 29
 1152 480 l 29
 128 480 l 29
 128 544 l 29
 1152 544 l 29
EndSplineSet
Validated: 1
EndChar

StartChar: Q_x
Encoding: 256 -1 190
Width: 2240
Flags: HW
LayerCount: 2
Fore
SplineSet
1088 960 m 1
 192 960 l 25
 192 64 l 1
 653 64 l 1
 845 263 l 1
 608 500 l 1
 653 544 l 1
 893 304 l 1
 1088 499 l 1
 1088 960 l 1
128 1024 m 25
 1152 1024 l 1
 1152 480 l 1
 935 263 l 1
 1133 64 l 1
 1347 64 l 1
 1555 272 l 1
 1328 499 l 1
 1373 544 l 1
 1600 317 l 1
 1827 544 l 1
 2112 544 l 1
 2112 480 l 1
 1853 480 l 1
 1645 272 l 1
 1872 45 l 1
 1827 0 l 1
 1600 227 l 1
 1373 0 l 1
 1107 0 l 1
 889 218 l 1
 672 0 l 1
 128 0 l 25
 128 1024 l 25
EndSplineSet
Validated: 1
LCarets2: 1 0
Ligature2: "'liga' Standard Ligatures in Latin lookup 0-1" Q x
EndChar

StartChar: r_x
Encoding: 257 -1 191
Width: 2000
Flags: HW
LayerCount: 2
Fore
SplineSet
128 0 m 25
 128 544 l 25
 1133 544 l 1
 1360 317 l 1
 1587 544 l 1
 1872 544 l 1
 1872 480 l 1
 1613 480 l 1
 1405 272 l 1
 1632 45 l 1
 1587 0 l 1
 1360 227 l 1
 1133 0 l 1
 848 0 l 1
 848 64 l 1
 1107 64 l 1
 1315 272 l 1
 1107 480 l 1
 192 480 l 25
 192 0 l 25
 128 0 l 25
EndSplineSet
Validated: 1
LCarets2: 1 0
Ligature2: "'liga' Standard Ligatures in Latin lookup 0-1" r x
EndChar

StartChar: S_J
Encoding: 258 -1 192
Width: 2240
Flags: HW
LayerCount: 2
Fore
SplineSet
1568 461 m 1
 1171 64 l 1
 1568 64 l 1
 1568 461 l 1
128 1024 m 9
 2112 1024 l 1
 2112 960 l 25
 1632 960 l 25
 1632 0 l 25
 1088 0 l 1
 1088 64 l 1
 1568 544 l 1
 1568 960 l 5
 192 960 l 5
 192 544 l 1
 1152 544 l 1
 1152 480 l 1
 672 0 l 1
 128 0 l 1
 128 64 l 1
 653 64 l 1
 1069 480 l 1
 128 480 l 1
 128 1024 l 9
EndSplineSet
Validated: 1
LCarets2: 1 0
Ligature2: "'liga' Standard Ligatures in Latin lookup 0-1" S J
EndChar

StartChar: S_T
Encoding: 259 -1 193
Width: 2240
Flags: HW
LayerCount: 2
Fore
SplineSet
128 1024 m 1
 2112 1024 l 1
 2112 960 l 25
 1632 960 l 25
 1632 0 l 25
 1568 0 l 25
 1568 960 l 1
 192 960 l 1
 192 544 l 1
 1152 544 l 1
 1152 480 l 1
 672 0 l 1
 128 0 l 1
 128 64 l 1
 653 64 l 1
 1069 480 l 1
 128 480 l 1
 128 1024 l 1
EndSplineSet
Validated: 1
LCarets2: 1 0
Ligature2: "'liga' Standard Ligatures in Latin lookup 0-1" S T
EndChar

StartChar: S_X
Encoding: 260 -1 194
Width: 2240
Flags: HW
LayerCount: 2
Fore
SplineSet
1107 960 m 5
 192 960 l 1
 192 544 l 1
 1152 544 l 1
 1152 480 l 1
 672 0 l 1
 128 0 l 1
 128 64 l 1
 653 64 l 1
 1069 480 l 1
 128 480 l 1
 128 1024 l 1
 1133 1024 l 1
 1600 557 l 1
 2067 1024 l 1
 2112 979 l 1
 1645 512 l 1
 2112 45 l 1
 2067 0 l 1
 1600 467 l 1
 1133 0 l 1
 1088 45 l 1
 1555 512 l 1
 1107 960 l 5
EndSplineSet
Validated: 1
Ligature2: "'liga' Standard Ligatures in Latin lookup 0-1" S X
LCarets2: 1 0
EndChar

StartChar: S_Y
Encoding: 261 -1 195
Width: 2240
Flags: HW
LayerCount: 2
Fore
SplineSet
1107 960 m 5
 192 960 l 1
 192 544 l 1
 1152 544 l 1
 1152 480 l 1
 672 0 l 1
 128 0 l 1
 128 64 l 1
 653 64 l 1
 1069 480 l 1
 128 480 l 1
 128 1024 l 1
 1133 1024 l 1
 1600 557 l 1
 2067 1024 l 1
 2112 979 l 1
 1632 499 l 1
 1632 0 l 1
 1568 0 l 1
 1568 499 l 1
 1107 960 l 5
EndSplineSet
Validated: 1
Ligature2: "'liga' Standard Ligatures in Latin lookup 0-1" S Y
EndChar

StartChar: S_I
Encoding: 262 -1 196
Width: 2240
Flags: HW
LayerCount: 2
Fore
SplineSet
128 1024 m 1
 2112 1024 l 17
 2112 960 l 1
 1632 960 l 1
 1632 64 l 1
 2112 64 l 1
 2112 0 l 1
 1088 0 l 1
 1088 64 l 1
 1568 64 l 1
 1568 960 l 1
 192 960 l 25
 192 544 l 25
 1152 544 l 25
 1152 480 l 1
 672 0 l 25
 128 0 l 1
 128 64 l 1
 653 64 l 1
 1069 480 l 1
 128 480 l 1
 128 1024 l 1
EndSplineSet
Validated: 1
LCarets2: 1 0
Ligature2: "'liga' Standard Ligatures in Latin lookup 0-1" S I
EndChar

StartChar: T_I
Encoding: 263 -1 197
Width: 2240
Flags: HW
LayerCount: 2
Fore
SplineSet
2112 1024 m 25
 2112 960 l 25
 1632 960 l 25
 1632 64 l 25
 2112 64 l 25
 2112 0 l 25
 1088 0 l 25
 1088 64 l 25
 1568 64 l 25
 1568 960 l 1
 672 960 l 17
 672 0 l 1
 608 0 l 1
 608 960 l 1
 128 960 l 1
 128 1024 l 1
 2112 1024 l 25
EndSplineSet
Validated: 1
LCarets2: 1 0
Ligature2: "'liga' Standard Ligatures in Latin lookup 0-1" T I
EndChar

StartChar: T_J
Encoding: 264 -1 198
Width: 2240
Flags: HW
LayerCount: 2
Fore
SplineSet
1568 461 m 1
 1171 64 l 1
 1568 64 l 1
 1568 461 l 1
2112 1024 m 29
 2112 960 l 25
 1632 960 l 25
 1632 0 l 25
 1088 0 l 1
 1088 64 l 1
 1568 544 l 1
 1568 960 l 1
 672 960 l 17
 672 0 l 1
 608 0 l 1
 608 960 l 1
 128 960 l 1
 128 1024 l 5
 2112 1024 l 29
EndSplineSet
Validated: 1
LCarets2: 1 0
Ligature2: "'liga' Standard Ligatures in Latin lookup 0-1" T J
EndChar

StartChar: T_T
Encoding: 265 -1 199
Width: 2240
Flags: HW
LayerCount: 2
Fore
SplineSet
2112 1024 m 25
 2112 960 l 25
 1632 960 l 25
 1632 0 l 25
 1568 0 l 25
 1568 960 l 1
 672 960 l 17
 672 0 l 1
 608 0 l 1
 608 960 l 1
 128 960 l 1
 128 1024 l 1
 2112 1024 l 25
EndSplineSet
Validated: 1
LCarets2: 1 0
Ligature2: "'liga' Standard Ligatures in Latin lookup 0-1" T T
EndChar

StartChar: T_X
Encoding: 266 -1 200
Width: 2240
Flags: HW
LayerCount: 2
Fore
SplineSet
1107 960 m 5
 672 960 l 1
 672 0 l 1
 608 0 l 1
 608 960 l 1
 128 960 l 1
 128 1024 l 1
 1133 1024 l 1
 1600 557 l 1
 2067 1024 l 1
 2112 979 l 1
 1645 512 l 1
 2112 45 l 1
 2067 0 l 1
 1600 467 l 1
 1133 0 l 1
 1088 45 l 1
 1555 512 l 1
 1107 960 l 5
EndSplineSet
Validated: 1
LCarets2: 1 0
Ligature2: "'liga' Standard Ligatures in Latin lookup 0-1" T X
EndChar

StartChar: T_Y
Encoding: 267 -1 201
Width: 2240
Flags: HW
LayerCount: 2
Fore
SplineSet
1107 960 m 5
 672 960 l 1
 672 0 l 1
 608 0 l 1
 608 960 l 1
 128 960 l 1
 128 1024 l 1
 1133 1024 l 1
 1600 557 l 1
 2067 1024 l 1
 2112 979 l 1
 1632 499 l 1
 1632 0 l 1
 1568 0 l 1
 1568 499 l 1
 1107 960 l 5
EndSplineSet
Validated: 1
LCarets2: 1 0
Ligature2: "'liga' Standard Ligatures in Latin lookup 0-1" T Y
EndChar

StartChar: T_Z
Encoding: 268 -1 202
Width: 2240
Flags: HW
LayerCount: 2
Fore
SplineSet
2112 1024 m 29
 2112 979 l 1
 1197 64 l 25
 2112 64 l 1
 2112 0 l 25
 1088 0 l 25
 1088 45 l 1
 2003 960 l 1
 672 960 l 1
 672 0 l 1
 608 0 l 1
 608 960 l 1
 128 960 l 1
 128 1024 l 5
 2112 1024 l 29
EndSplineSet
Validated: 1
LCarets2: 1 0
Ligature2: "'liga' Standard Ligatures in Latin lookup 0-1" T Z
EndChar

StartChar: S_Z
Encoding: 269 -1 203
Width: 2240
Flags: HW
LayerCount: 2
Fore
SplineSet
2112 1024 m 25
 2112 979 l 1
 1197 64 l 25
 2112 64 l 1
 2112 0 l 25
 1088 0 l 25
 1088 45 l 1
 2003 960 l 1
 192 960 l 1
 192 544 l 1
 1152 544 l 1
 1152 480 l 1
 672 0 l 1
 128 0 l 1
 128 64 l 1
 653 64 l 1
 1069 480 l 1
 128 480 l 1
 128 1024 l 1
 2112 1024 l 25
EndSplineSet
Validated: 1
LCarets2: 1 0
Ligature2: "'liga' Standard Ligatures in Latin lookup 0-1" S Z
EndChar

StartChar: t_f
Encoding: 270 -1 204
Width: 2240
Flags: HW
LayerCount: 2
Fore
SplineSet
1568 0 m 25
 1568 480 l 1
 672 480 l 1
 672 0 l 1
 608 0 l 1
 608 480 l 1
 128 480 l 1
 128 544 l 1
 608 544 l 1
 608 1024 l 1
 672 1024 l 1
 672 544 l 9
 1568 544 l 1
 1568 1024 l 25
 2112 1024 l 25
 2112 960 l 25
 1632 960 l 25
 1632 544 l 25
 2112 544 l 25
 2112 480 l 25
 1632 480 l 25
 1632 0 l 25
 1568 0 l 25
EndSplineSet
Validated: 1
Ligature2: "'liga' Standard Ligatures in Latin lookup 0-1" t f
LCarets2: 1 0
EndChar

StartChar: t_t
Encoding: 271 -1 205
Width: 2240
Flags: HW
LayerCount: 2
Fore
SplineSet
1568 0 m 25
 1568 480 l 1
 672 480 l 1
 672 0 l 1
 608 0 l 1
 608 480 l 1
 128 480 l 1
 128 544 l 1
 608 544 l 1
 608 1024 l 1
 672 1024 l 1
 672 544 l 9
 1568 544 l 1
 1568 1024 l 25
 1632 1024 l 25
 1632 544 l 25
 2112 544 l 25
 2112 480 l 25
 1632 480 l 25
 1632 0 l 25
 1568 0 l 25
EndSplineSet
Validated: 1
Ligature2: "'liga' Standard Ligatures in Latin lookup 0-1" t t
LCarets2: 1 0
EndChar

StartChar: t_y
Encoding: 272 -1 206
Width: 2240
Flags: HW
LayerCount: 2
Fore
SplineSet
1107 480 m 5
 672 480 l 5
 672 0 l 5
 608 0 l 5
 608 480 l 5
 128 480 l 5
 128 544 l 5
 608 544 l 5
 608 1024 l 5
 672 1024 l 5
 672 544 l 5
 1133 544 l 5
 1600 77 l 5
 2067 544 l 5
 2112 499 l 5
 1133 -480 l 5
 1088 -435 l 5
 1555 32 l 5
 1107 480 l 5
EndSplineSet
Validated: 1
LCarets2: 1 0
Ligature2: "'liga' Standard Ligatures in Latin lookup 0-1" t y
EndChar

StartChar: t_yacute
Encoding: 273 -1 207
Width: 2240
Flags: HW
LayerCount: 2
Fore
SplineSet
1707 1024 m 1
 1752 979 l 1
 1495 720 l 1
 1450 765 l 1
 1707 1024 l 1
1107 480 m 5
 672 480 l 1
 672 0 l 1
 608 0 l 1
 608 480 l 1
 128 480 l 1
 128 544 l 1
 608 544 l 1
 608 1024 l 1
 672 1024 l 1
 672 544 l 1
 1133 544 l 1
 1600 77 l 1
 2067 544 l 1
 2112 499 l 1
 1133 -480 l 1
 1088 -435 l 1
 1555 32 l 1
 1107 480 l 5
EndSplineSet
Validated: 1
LCarets2: 1 0
Ligature2: "'liga' Standard Ligatures in Latin lookup 0-1" t yacute
EndChar

StartChar: t_ydieresis
Encoding: 274 -1 208
Width: 2240
Flags: HW
LayerCount: 2
Fore
SplineSet
1107 480 m 1
 672 480 l 1
 672 0 l 1
 608 0 l 1
 608 480 l 1
 128 480 l 1
 128 544 l 1
 608 544 l 1
 608 1024 l 1
 672 1024 l 1
 672 544 l 1
 1133 544 l 1
 1600 77 l 1
 2067 544 l 1
 2112 499 l 1
 1133 -480 l 1
 1088 -435 l 1
 1555 32 l 1
 1107 480 l 1
1872 848 m 1
 1872 720 l 1
 1808 720 l 1
 1808 848 l 1
 1872 848 l 1
1392 848 m 1
 1392 720 l 1
 1328 720 l 1
 1328 848 l 1
 1392 848 l 1
EndSplineSet
Validated: 1
LCarets2: 1 0
Ligature2: "'liga' Standard Ligatures in Latin lookup 0-1" t ydieresis
EndChar

StartChar: t_z
Encoding: 275 -1 209
Width: 2240
Flags: HW
LayerCount: 2
Fore
SplineSet
1632 544 m 25
 1632 499 l 1
 1197 64 l 25
 2112 64 l 1
 2112 0 l 25
 1088 0 l 1
 1088 45 l 1
 1523 480 l 1
 672 480 l 1
 672 0 l 1
 608 0 l 1
 608 480 l 1
 128 480 l 1
 128 544 l 1
 608 544 l 1
 608 1024 l 1
 672 1024 l 1
 672 544 l 1
 1632 544 l 25
EndSplineSet
Validated: 1
LCarets2: 1 0
Ligature2: "'liga' Standard Ligatures in Latin lookup 0-1" t z
EndChar

StartChar: V_J
Encoding: 276 -1 210
Width: 2240
Flags: HW
LayerCount: 2
Fore
SplineSet
1568 461 m 5
 1171 64 l 5
 1568 64 l 5
 1568 461 l 5
1107 1024 m 5
 2112 1024 l 29
 2112 960 l 29
 1632 960 l 29
 1632 0 l 29
 1088 0 l 5
 1088 64 l 5
 1568 544 l 5
 1568 960 l 5
 1133 960 l 5
 173 0 l 5
 128 0 l 5
 128 1024 l 5
 192 1024 l 5
 192 109 l 5
 1107 1024 l 5
EndSplineSet
Validated: 1
LCarets2: 1 0
Ligature2: "'liga' Standard Ligatures in Latin lookup 0-1" V J
EndChar

StartChar: v_J
Encoding: 277 -1 211
Width: 2240
Flags: HW
LayerCount: 2
Fore
SplineSet
1568 461 m 1
 1171 64 l 1
 1568 64 l 1
 1568 461 l 1
1107 1024 m 1
 2112 1024 l 25
 2112 960 l 25
 1632 960 l 25
 1632 0 l 25
 1088 0 l 1
 1088 64 l 1
 1568 544 l 1
 1568 960 l 1
 1133 960 l 1
 173 0 l 1
 128 0 l 1
 128 544 l 5
 192 544 l 5
 192 109 l 1
 1107 1024 l 1
EndSplineSet
Validated: 1
LCarets2: 1 0
Ligature2: "'liga' Standard Ligatures in Latin lookup 0-1" v J
EndChar

StartChar: V_T
Encoding: 278 -1 212
Width: 2240
Flags: HW
LayerCount: 2
Fore
SplineSet
1107 1024 m 5
 2112 1024 l 29
 2112 960 l 29
 1632 960 l 29
 1632 0 l 29
 1568 0 l 29
 1568 960 l 29
 1133 960 l 5
 173 0 l 5
 128 0 l 5
 128 1024 l 5
 192 1024 l 5
 192 109 l 5
 1107 1024 l 5
EndSplineSet
Validated: 1
LCarets2: 1 0
Ligature2: "'liga' Standard Ligatures in Latin lookup 0-1" V T
EndChar

StartChar: v_T
Encoding: 279 -1 213
Width: 2240
Flags: HW
LayerCount: 2
Fore
SplineSet
1107 1024 m 1
 2112 1024 l 25
 2112 960 l 25
 1632 960 l 25
 1632 0 l 25
 1568 0 l 25
 1568 960 l 25
 1133 960 l 1
 173 0 l 1
 128 0 l 1
 128 544 l 5
 192 544 l 5
 192 109 l 1
 1107 1024 l 1
EndSplineSet
Validated: 1
LCarets2: 1 0
Ligature2: "'liga' Standard Ligatures in Latin lookup 0-1" v T
EndChar

StartChar: V_X
Encoding: 280 -1 214
Width: 2244
Flags: HW
LayerCount: 2
Fore
SplineSet
1125 942 m 5
 183 0 l 5
 128 0 l 5
 128 1024 l 5
 192 1024 l 5
 192 109 l 5
 1121 1036 l 5
 1600 557 l 5
 2067 1024 l 5
 2112 979 l 5
 1645 512 l 5
 2112 45 l 5
 2067 0 l 5
 1600 467 l 5
 1133 0 l 5
 1088 45 l 5
 1555 512 l 5
 1125 942 l 5
EndSplineSet
Validated: 1
LCarets2: 1 0
Ligature2: "'liga' Standard Ligatures in Latin lookup 0-1" V X
EndChar

StartChar: v_X
Encoding: 281 -1 215
Width: 2244
Flags: HW
LayerCount: 2
Fore
SplineSet
1125 942 m 1
 183 0 l 1
 128 0 l 1
 128 544 l 5
 192 544 l 5
 192 109 l 1
 1121 1036 l 1
 1600 557 l 1
 2067 1024 l 1
 2112 979 l 1
 1645 512 l 1
 2112 45 l 1
 2067 0 l 1
 1600 467 l 1
 1133 0 l 1
 1088 45 l 1
 1555 512 l 1
 1125 942 l 1
EndSplineSet
Validated: 1
LCarets2: 1 0
Ligature2: "'liga' Standard Ligatures in Latin lookup 0-1" v X
EndChar

StartChar: V_Y
Encoding: 282 -1 216
Width: 2240
Flags: HW
LayerCount: 2
Fore
SplineSet
1120 947 m 5
 173 0 l 5
 128 0 l 5
 128 1024 l 5
 192 1024 l 5
 192 109 l 5
 1120 1037 l 5
 1600 557 l 5
 2067 1024 l 5
 2112 979 l 5
 1632 499 l 5
 1632 0 l 5
 1568 0 l 5
 1568 499 l 5
 1120 947 l 5
EndSplineSet
Validated: 1
LCarets2: 1 0
Ligature2: "'liga' Standard Ligatures in Latin lookup 0-1" V Y
EndChar

StartChar: v_Y
Encoding: 283 -1 217
Width: 2240
Flags: HW
LayerCount: 2
Fore
SplineSet
1120 947 m 1
 173 0 l 1
 128 0 l 1
 128 544 l 5
 192 544 l 5
 192 109 l 1
 1120 1037 l 1
 1600 557 l 1
 2067 1024 l 1
 2112 979 l 1
 1632 499 l 1
 1632 0 l 1
 1568 0 l 1
 1568 499 l 1
 1120 947 l 1
EndSplineSet
Validated: 1
LCarets2: 1 0
Ligature2: "'liga' Standard Ligatures in Latin lookup 0-1" v Y
EndChar

StartChar: V_Yacute
Encoding: 284 -1 218
Width: 2240
Flags: HW
LayerCount: 2
Fore
SplineSet
1120 947 m 5
 173 0 l 5
 128 0 l 5
 128 1024 l 5
 192 1024 l 5
 192 109 l 5
 1120 1037 l 5
 1600 557 l 5
 2067 1024 l 5
 2112 979 l 5
 1632 499 l 5
 1632 0 l 5
 1568 0 l 5
 1568 499 l 5
 1120 947 l 5
1707 1504 m 5
 1752 1459 l 5
 1493 1200 l 5
 1448 1245 l 5
 1707 1504 l 5
EndSplineSet
Validated: 1
LCarets2: 1 0
Ligature2: "'liga' Standard Ligatures in Latin lookup 0-1" V Yacute
EndChar

StartChar: v_Yacute
Encoding: 285 -1 219
Width: 2240
Flags: HW
LayerCount: 2
Fore
SplineSet
1120 947 m 1
 173 0 l 1
 128 0 l 1
 128 544 l 5
 192 544 l 5
 192 109 l 1
 1120 1037 l 1
 1600 557 l 1
 2067 1024 l 1
 2112 979 l 1
 1632 499 l 1
 1632 0 l 1
 1568 0 l 1
 1568 499 l 1
 1120 947 l 1
1707 1504 m 1
 1752 1459 l 1
 1493 1200 l 1
 1448 1245 l 1
 1707 1504 l 1
EndSplineSet
Validated: 1
LCarets2: 1 0
Ligature2: "'liga' Standard Ligatures in Latin lookup 0-1" v Yacute
EndChar

StartChar: V_Z
Encoding: 286 -1 220
Width: 2240
Flags: HW
LayerCount: 2
Fore
SplineSet
1107 1024 m 5
 2112 1024 l 5
 2112 979 l 5
 1197 64 l 29
 2112 64 l 5
 2112 0 l 29
 1088 0 l 29
 1088 45 l 5
 2003 960 l 29
 1133 960 l 5
 173 0 l 5
 128 0 l 5
 128 1024 l 5
 192 1024 l 5
 192 109 l 5
 1107 1024 l 5
EndSplineSet
Validated: 1
LCarets2: 1 0
Ligature2: "'liga' Standard Ligatures in Latin lookup 0-1" V Z
EndChar

StartChar: v_Z
Encoding: 287 -1 221
Width: 2240
Flags: HW
LayerCount: 2
Fore
SplineSet
1107 1024 m 1
 2112 1024 l 1
 2112 979 l 1
 1197 64 l 25
 2112 64 l 1
 2112 0 l 25
 1088 0 l 25
 1088 45 l 1
 2003 960 l 25
 1133 960 l 1
 173 0 l 1
 128 0 l 1
 128 544 l 5
 192 544 l 5
 192 109 l 1
 1107 1024 l 1
EndSplineSet
Validated: 1
LCarets2: 1 0
Ligature2: "'liga' Standard Ligatures in Latin lookup 0-1" v Z
EndChar

StartChar: X_x
Encoding: 288 -1 222
Width: 2240
Flags: HW
LayerCount: 2
Fore
SplineSet
1328 499 m 1
 1373 544 l 1
 1600 317 l 1
 1827 544 l 1
 2112 544 l 1
 2112 480 l 1
 1853 480 l 1
 1645 272 l 1
 1872 45 l 1
 1827 0 l 1
 1600 227 l 1
 1373 0 l 1
 1107 0 l 1
 640 467 l 1
 173 0 l 1
 128 45 l 1
 595 512 l 1
 128 979 l 1
 173 1024 l 1
 640 557 l 1
 1107 1024 l 1
 1152 979 l 1
 685 512 l 1
 1133 64 l 1
 1347 64 l 1
 1555 272 l 1
 1328 499 l 1
EndSplineSet
Validated: 1
LCarets2: 1 0
Ligature2: "'liga' Standard Ligatures in Latin lookup 0-1" X x
EndChar

StartChar: x_a
Encoding: 289 -1 223
Width: 2240
Flags: HW
LayerCount: 2
Fore
SplineSet
2048 240 m 1
 1152 240 l 1
 1152 64 l 1
 2048 64 l 1
 2048 240 l 1
368 499 m 1
 413 544 l 1
 640 317 l 1
 867 544 l 1
 2112 544 l 1
 2112 0 l 1
 1088 0 l 1
 1088 304 l 1
 2048 304 l 1
 2048 480 l 1
 893 480 l 1
 685 272 l 1
 912 45 l 1
 867 0 l 1
 640 227 l 1
 413 0 l 1
 128 0 l 1
 128 64 l 1
 387 64 l 1
 595 272 l 1
 368 499 l 1
EndSplineSet
Validated: 1
LCarets2: 1 0
Ligature2: "'liga' Standard Ligatures in Latin lookup 0-1" x a
EndChar

StartChar: x_f
Encoding: 290 -1 224
Width: 2240
Flags: HW
LayerCount: 2
Fore
SplineSet
368 499 m 5
 413 544 l 5
 640 317 l 5
 867 544 l 5
 1568 544 l 5
 1568 1024 l 5
 2112 1024 l 5
 2112 960 l 5
 1632 960 l 5
 1632 544 l 5
 2112 544 l 5
 2112 480 l 5
 1632 480 l 5
 1632 0 l 5
 1568 0 l 5
 1568 480 l 5
 893 480 l 5
 685 272 l 5
 912 45 l 5
 867 0 l 5
 640 227 l 5
 413 0 l 5
 128 0 l 5
 128 64 l 5
 387 64 l 5
 595 272 l 5
 368 499 l 5
EndSplineSet
Validated: 1
LCarets2: 1 0
Ligature2: "'liga' Standard Ligatures in Latin lookup 0-1" x f
EndChar

StartChar: x_t
Encoding: 291 -1 225
Width: 2240
Flags: HW
LayerCount: 2
Fore
SplineSet
368 499 m 5
 413 544 l 5
 640 317 l 5
 867 544 l 5
 1568 544 l 5
 1568 1024 l 5
 1632 1024 l 5
 1632 544 l 5
 2112 544 l 5
 2112 480 l 5
 1632 480 l 5
 1632 0 l 5
 1568 0 l 5
 1568 480 l 5
 893 480 l 5
 685 272 l 5
 912 45 l 5
 867 0 l 5
 640 227 l 5
 413 0 l 5
 128 0 l 5
 128 64 l 5
 387 64 l 5
 595 272 l 5
 368 499 l 5
EndSplineSet
Validated: 1
LCarets2: 1 0
Ligature2: "'liga' Standard Ligatures in Latin lookup 0-1" x t
EndChar

StartChar: x_plus
Encoding: 292 -1 226
Width: 2240
Flags: HW
LayerCount: 2
Fore
SplineSet
368 499 m 5
 413 544 l 5
 640 317 l 5
 867 544 l 5
 1568 544 l 5
 1568 1024 l 5
 1632 1024 l 5
 1632 544 l 5
 2112 544 l 5
 2112 480 l 5
 1632 480 l 5
 1632 0 l 5
 1568 0 l 5
 1568 480 l 5
 893 480 l 5
 685 272 l 5
 912 45 l 5
 867 0 l 5
 640 227 l 5
 413 0 l 5
 128 0 l 5
 128 64 l 5
 387 64 l 5
 595 272 l 5
 368 499 l 5
EndSplineSet
Validated: 1
LCarets2: 1 0
Ligature2: "'liga' Standard Ligatures in Latin lookup 0-1" x plus
EndChar

StartChar: x_y
Encoding: 293 -1 227
Width: 2240
Flags: HW
LayerCount: 2
Fore
SplineSet
1107 480 m 5
 893 480 l 5
 685 272 l 5
 912 45 l 5
 867 0 l 5
 640 227 l 5
 413 0 l 5
 128 0 l 5
 128 64 l 5
 387 64 l 5
 595 272 l 5
 368 499 l 5
 413 544 l 5
 640 317 l 5
 867 544 l 5
 1133 544 l 5
 1600 77 l 5
 2067 544 l 5
 2112 499 l 5
 1133 -480 l 5
 1088 -435 l 5
 1555 32 l 5
 1107 480 l 5
EndSplineSet
Validated: 1
LCarets2: 1 0
Ligature2: "'liga' Standard Ligatures in Latin lookup 0-1" x y
EndChar

StartChar: x_yacute
Encoding: 294 -1 228
Width: 2240
Flags: HW
LayerCount: 2
Fore
SplineSet
1107 480 m 5
 893 480 l 5
 685 272 l 5
 912 45 l 5
 867 0 l 5
 640 227 l 5
 413 0 l 5
 128 0 l 5
 128 64 l 5
 387 64 l 5
 595 272 l 5
 368 499 l 5
 413 544 l 5
 640 317 l 5
 867 544 l 5
 1133 544 l 5
 1600 77 l 5
 2067 544 l 5
 2112 499 l 5
 1133 -480 l 5
 1088 -435 l 5
 1555 32 l 5
 1107 480 l 5
1707 1024 m 1
 1752 979 l 1
 1495 720 l 1
 1450 765 l 1
 1707 1024 l 1
EndSplineSet
Validated: 1
LCarets2: 1 0
Ligature2: "'liga' Standard Ligatures in Latin lookup 0-1" x yacute
EndChar

StartChar: x_ydieresis
Encoding: 295 -1 229
Width: 2240
Flags: HW
LayerCount: 2
Fore
SplineSet
1107 480 m 5
 893 480 l 5
 685 272 l 5
 912 45 l 5
 867 0 l 5
 640 227 l 5
 413 0 l 5
 128 0 l 5
 128 64 l 5
 387 64 l 5
 595 272 l 5
 368 499 l 5
 413 544 l 5
 640 317 l 5
 867 544 l 5
 1133 544 l 5
 1600 77 l 5
 2067 544 l 5
 2112 499 l 5
 1133 -480 l 5
 1088 -435 l 5
 1555 32 l 5
 1107 480 l 5
1872 848 m 1
 1872 720 l 1
 1808 720 l 1
 1808 848 l 1
 1872 848 l 1
1392 848 m 1
 1392 720 l 1
 1328 720 l 1
 1328 848 l 1
 1392 848 l 1
EndSplineSet
Validated: 1
LCarets2: 1 0
Ligature2: "'liga' Standard Ligatures in Latin lookup 0-1" x ydieresis
EndChar

StartChar: x_z
Encoding: 296 -1 230
Width: 2240
Flags: HW
LayerCount: 2
Fore
SplineSet
368 499 m 1
 413 544 l 1
 640 317 l 1
 867 544 l 1
 1632 544 l 1
 1632 499 l 1
 1197 64 l 1
 2112 64 l 1
 2112 0 l 1
 1088 0 l 1
 1088 45 l 1
 1523 480 l 1
 893 480 l 1
 685 272 l 1
 912 45 l 1
 867 0 l 1
 640 227 l 1
 413 0 l 1
 128 0 l 1
 128 64 l 1
 387 64 l 1
 595 272 l 1
 368 499 l 1
EndSplineSet
Validated: 1
LCarets2: 1 0
Ligature2: "'liga' Standard Ligatures in Latin lookup 0-1" x z
EndChar

StartChar: Y_J
Encoding: 297 -1 231
Width: 2240
Flags: HW
LayerCount: 2
Fore
SplineSet
1568 461 m 5
 1171 64 l 5
 1568 64 l 5
 1568 461 l 5
1107 1024 m 13
 2112 1024 l 5
 2112 960 l 29
 1632 960 l 29
 1632 0 l 29
 1088 0 l 5
 1088 64 l 5
 1568 544 l 5
 1568 960 l 5
 1133 960 l 5
 672 499 l 5
 672 0 l 5
 608 0 l 5
 608 499 l 5
 128 979 l 5
 173 1024 l 5
 640 557 l 5
 1107 1024 l 13
EndSplineSet
Validated: 1
Ligature2: "'liga' Standard Ligatures in Latin lookup 0-1" Y J
LCarets2: 1 0
EndChar

StartChar: Yacute_J
Encoding: 298 -1 232
Width: 2240
Flags: HW
LayerCount: 2
Fore
SplineSet
1568 461 m 5
 1171 64 l 5
 1568 64 l 5
 1568 461 l 5
1107 1024 m 13
 2112 1024 l 5
 2112 960 l 29
 1632 960 l 29
 1632 0 l 29
 1088 0 l 5
 1088 64 l 5
 1568 544 l 5
 1568 960 l 5
 1133 960 l 5
 672 499 l 5
 672 0 l 5
 608 0 l 5
 608 499 l 5
 128 979 l 5
 173 1024 l 5
 640 557 l 5
 1107 1024 l 13
747 1504 m 1
 792 1459 l 1
 533 1200 l 1
 488 1245 l 1
 747 1504 l 1
EndSplineSet
Validated: 1
Ligature2: "'liga' Standard Ligatures in Latin lookup 0-1" Yacute J
LCarets2: 1 0
EndChar

StartChar: Y_T
Encoding: 299 -1 233
Width: 2240
Flags: HW
LayerCount: 2
Fore
SplineSet
1107 1024 m 13
 2112 1024 l 5
 2112 960 l 29
 1632 960 l 29
 1632 0 l 29
 1568 0 l 29
 1568 960 l 29
 1133 960 l 5
 672 499 l 5
 672 0 l 5
 608 0 l 5
 608 499 l 5
 128 979 l 5
 173 1024 l 5
 640 557 l 5
 1107 1024 l 13
EndSplineSet
Validated: 1
Ligature2: "'liga' Standard Ligatures in Latin lookup 0-1" Y T
LCarets2: 1 0
EndChar

StartChar: Yacute_T
Encoding: 300 -1 234
Width: 2240
Flags: HW
LayerCount: 2
Fore
SplineSet
1107 1024 m 13
 2112 1024 l 5
 2112 960 l 29
 1632 960 l 29
 1632 0 l 29
 1568 0 l 29
 1568 960 l 29
 1133 960 l 5
 672 499 l 5
 672 0 l 5
 608 0 l 5
 608 499 l 5
 128 979 l 5
 173 1024 l 5
 640 557 l 5
 1107 1024 l 13
747 1504 m 1
 792 1459 l 1
 533 1200 l 1
 488 1245 l 1
 747 1504 l 1
EndSplineSet
Validated: 1
LCarets2: 1 0
Ligature2: "'liga' Standard Ligatures in Latin lookup 0-1" Yacute T
EndChar

StartChar: Y_Z
Encoding: 301 -1 235
Width: 2240
Flags: HW
LayerCount: 2
Fore
SplineSet
1107 1024 m 13
 2112 1024 l 5
 2112 979 l 5
 1197 64 l 29
 2112 64 l 5
 2112 0 l 29
 1088 0 l 29
 1088 45 l 5
 2003 960 l 29
 1133 960 l 5
 672 499 l 5
 672 0 l 5
 608 0 l 5
 608 499 l 5
 128 979 l 5
 173 1024 l 5
 640 557 l 5
 1107 1024 l 13
EndSplineSet
Validated: 1
LCarets2: 1 0
Ligature2: "'liga' Standard Ligatures in Latin lookup 0-1" Y Z
EndChar

StartChar: Yacute_Z
Encoding: 302 -1 236
Width: 2240
Flags: HW
LayerCount: 2
Fore
SplineSet
1107 1024 m 13
 2112 1024 l 5
 2112 979 l 5
 1197 64 l 29
 2112 64 l 5
 2112 0 l 29
 1088 0 l 29
 1088 45 l 5
 2003 960 l 29
 1133 960 l 5
 672 499 l 5
 672 0 l 5
 608 0 l 5
 608 499 l 5
 128 979 l 5
 173 1024 l 5
 640 557 l 5
 1107 1024 l 13
747 1504 m 1
 792 1459 l 1
 533 1200 l 1
 488 1245 l 1
 747 1504 l 1
EndSplineSet
Validated: 1
LCarets2: 1 0
Ligature2: "'liga' Standard Ligatures in Latin lookup 0-1" Yacute Z
EndChar

StartChar: Z_x
Encoding: 303 -1 237
Width: 2240
Flags: HW
LayerCount: 2
Fore
SplineSet
1328 499 m 1
 1373 544 l 1
 1600 317 l 1
 1827 544 l 1
 2112 544 l 1
 2112 480 l 1
 1853 480 l 1
 1645 272 l 1
 1872 45 l 1
 1827 0 l 1
 1600 227 l 1
 1373 0 l 1
 128 0 l 1
 128 45 l 1
 1043 960 l 1
 128 960 l 1
 128 1024 l 1
 1152 1024 l 1
 1152 979 l 1
 237 64 l 1
 1347 64 l 1
 1555 272 l 1
 1328 499 l 1
EndSplineSet
Validated: 1
LCarets2: 1 0
Ligature2: "'liga' Standard Ligatures in Latin lookup 0-1" Z x
EndChar

StartChar: z_x
Encoding: 304 -1 238
Width: 2240
Flags: HW
LayerCount: 2
Fore
SplineSet
1328 499 m 1
 1373 544 l 1
 1600 317 l 1
 1827 544 l 1
 2112 544 l 1
 2112 480 l 1
 1853 480 l 1
 1645 272 l 1
 1872 45 l 1
 1827 0 l 1
 1600 227 l 1
 1373 0 l 1
 128 0 l 1
 128 45 l 1
 563 480 l 1
 128 480 l 1
 128 544 l 1
 672 544 l 1
 672 499 l 1
 237 64 l 1
 1347 64 l 1
 1555 272 l 1
 1328 499 l 1
EndSplineSet
Validated: 1
LCarets2: 1 0
Ligature2: "'liga' Standard Ligatures in Latin lookup 0-1" z x
EndChar

StartChar: quoteleft
Encoding: 127 8216 239
Width: 560
VWidth: 0
Flags: W
HStem: 716 308
VStem: 128 304
LayerCount: 2
Fore
SplineSet
387 1024 m 5
 432 975 l 5
 173 716 l 5
 128 761 l 5
 387 1024 l 5
EndSplineSet
Validated: 1
EndChar

StartChar: quoteright
Encoding: 128 8217 240
Width: 560
VWidth: 0
Flags: HW
LayerCount: 2
Fore
SplineSet
173 1024 m 5
 432 765 l 5
 387 720 l 5
 128 979 l 5
 173 1024 l 5
EndSplineSet
Validated: 1
EndChar

StartChar: quotedblleft
Encoding: 129 8220 241
Width: 800
VWidth: 0
Flags: HW
LayerCount: 2
Fore
SplineSet
627 1024 m 1
 672 975 l 1
 413 716 l 1
 368 761 l 1
 627 1024 l 1
387 1024 m 1
 432 975 l 1
 173 716 l 1
 128 761 l 1
 387 1024 l 1
EndSplineSet
Validated: 1
EndChar

StartChar: quotedblright
Encoding: 130 8221 242
Width: 800
VWidth: 0
Flags: HW
LayerCount: 2
Fore
SplineSet
413 1024 m 5
 672 765 l 5
 625 720 l 5
 368 979 l 5
 413 1024 l 5
173 1024 m 5
 432 765 l 5
 385 720 l 5
 128 979 l 5
 173 1024 l 5
EndSplineSet
Validated: 1
EndChar

StartChar: Y_question
Encoding: 305 -1 243
Width: 1760
Flags: HW
LayerCount: 2
Fore
SplineSet
128 979 m 1
 173 1024 l 1
 640 557 l 1
 1107 1024 l 1
 1632 1024 l 1
 1631 480 l 1
 1152 480 l 1
 1152 240 l 1
 1088 240 l 1
 1088 544 l 1
 1568 544 l 1
 1568 960 l 1
 1133 960 l 5
 672 499 l 1
 672 0 l 1
 608 0 l 1
 608 499 l 1
 128 979 l 1
1088 0 m 1
 1088 128 l 1
 1152 128 l 1
 1152 0 l 1
 1088 0 l 1
  Spiro
    1087.96 0 v
    1088 128 v
    1152 128 v
    1152 0.277 v
    0 0 z
  EndSpiro
EndSplineSet
Validated: 1
Ligature2: "'liga' Standard Ligatures in Latin lookup 0-1" Y question
LCarets2: 1 0
EndChar

StartChar: f_f
Encoding: 306 -1 244
Width: 2240
Flags: HW
LayerCount: 2
Fore
SplineSet
608 0 m 25
 608 480 l 25
 128 480 l 25
 128 544 l 25
 608 544 l 25
 608 1024 l 25
 1152 1024 l 25
 1152 960 l 25
 672 960 l 25
 672 544 l 1
 1568 544 l 17
 1568 1024 l 1
 2112 1024 l 1
 2112 960 l 1
 1632 960 l 1
 1632 544 l 1
 2112 544 l 1
 2112 480 l 1
 1632 480 l 1
 1632 0 l 1
 1568 0 l 1
 1568 480 l 1
 672 480 l 1
 672 0 l 25
 608 0 l 25
EndSplineSet
Validated: 1
LCarets2: 1 0
Ligature2: "'liga' Standard Ligatures in Latin lookup 0-1" f f
EndChar

StartChar: k_t
Encoding: 307 -1 245
Width: 2240
Flags: HW
LayerCount: 2
Fore
SplineSet
128 1024 m 5
 192 1024 l 5
 192 544 l 5
 1568 544 l 5
 1568 1024 l 5
 1632 1024 l 5
 1632 544 l 5
 2112 544 l 5
 2112 480 l 5
 1632 480 l 5
 1632 0 l 5
 1568 0 l 5
 1568 480 l 5
 237 480 l 5
 1152 -435 l 5
 1107 -480 l 5
 192 435 l 5
 192 0 l 5
 128 0 l 5
 128 1024 l 5
EndSplineSet
Validated: 1
LCarets2: 1 0
Ligature2: "'liga' Standard Ligatures in Latin lookup 0-1" k t
EndChar

StartChar: k_f
Encoding: 308 -1 246
Width: 2240
Flags: HW
LayerCount: 2
Fore
SplineSet
128 1024 m 1
 192 1024 l 1
 192 544 l 1
 1568 544 l 1
 1568 1024 l 1
 2112 1024 l 1
 2112 960 l 1
 1632 960 l 1
 1632 544 l 1
 2112 544 l 1
 2112 480 l 1
 1632 480 l 1
 1632 0 l 1
 1568 0 l 1
 1568 480 l 1
 237 480 l 1
 1152 -435 l 1
 1107 -480 l 1
 192 435 l 1
 192 0 l 1
 128 0 l 1
 128 1024 l 1
EndSplineSet
Validated: 1
LCarets2: 1 0
Ligature2: "'liga' Standard Ligatures in Latin lookup 0-1" k f
EndChar

StartChar: y_question
Encoding: 309 -1 247
Width: 2240
Flags: HW
LayerCount: 2
Fore
SplineSet
128 499 m 1
 173 544 l 1
 640 77 l 1
 1587 1024 l 1
 2112 1024 l 1
 2111 480 l 1
 1632 480 l 1
 1632 240 l 1
 1568 240 l 1
 1568 544 l 1
 2048 544 l 1
 2048 960 l 1
 1613 960 l 1
 173 -480 l 1
 128 -435 l 1
 595 32 l 1
 128 499 l 1
1568 0 m 1
 1568 128 l 1
 1632 128 l 1
 1632 0 l 1
 1568 0 l 1
  Spiro
    1567.96 0 v
    1568 128 v
    1632 128 v
    1632 0.277 v
    0 0 z
  EndSpiro
EndSplineSet
LCarets2: 1 0
Ligature2: "'liga' Standard Ligatures in Latin lookup 0-1" y question
EndChar
